<svg viewBox="0 0 640 960" xmlns="http://www.w3.org/2000/svg" xml:space="preserve" style="fill-rule:evenodd;clip-rule:evenodd;stroke-linejoin:round;stroke-miterlimit:2"><path d="M371.788 390.404c-4.921-.694-5.907-2.064-10.89-1.27-4.191.669-6.862 3.226-10.287 5.365-2.283 1.426-5.052 1.861-7.313 3.307-2.104 1.345-3.334 3.378-5.146 4.983-2.044 1.812-4.443 2.965-6.115 5.207-3.736 5.009.874 12.008.874 12.008 5.551.005 8.542 1.54 8.333 4.991 0 0 30.857 5.678 43.194 5.222 11.403-.421 22.847-.878 34.259-.793 6.066.045 12.382 1 18.404.482 4.885-.42 8.785-3.615 13.664-4.237 8.321-1.062 17.876 1.438 24.48-5.332 2.134-2.189 3.16-5.441 3.166-8.457.004-2.047-.508-4.036-.147-6.074.605-3.405 2.375-6.501 2.43-10.015.128-8.16-8.935-10.931-15.988-10.105-7.644.895-13.219 3.537-20.049 6.574-4.659 2.072-9.546 5.175-14.589 4.947-8.008-.363-15.947-1.731-23.982-1.659-7.577.069-26.848-2.904-34.298-5.144Z" style="fill:#f1f1f1" transform="translate(-126.426 -77.254) scale(1.47888)"/><path d="M325.071 473.502a53.19 53.19 0 0 1 .588-7.563c.384-2.496 1.044-4.946 1.914-7.316a38.436 38.436 0 0 1 3.298-6.867 47.62 47.62 0 0 1 4.197-5.829c1.145-1.358 2.304-2.719 3.577-3.96a69.839 69.839 0 0 1 2.818-2.594c1.404-1.226 2.911-2.336 4.42-3.429a86.253 86.253 0 0 1 5.904-3.919c2.811-1.704 5.664-3.34 8.518-4.97 3.357-1.919 6.748-3.78 10.195-5.53 2.464-1.25 4.97-2.48 7.58-3.4 1.378-.487 2.771-.99 4.198-1.313 1.117-.252 2.26-.386 3.4-.492h.011c.82-.086 1.643-.193 2.442-.396.39-.099.832-.212 1.16-.459a.895.895 0 0 1 1.25 1.262c-.445.574-1.133.92-1.8 1.165-.895.328-1.843.507-2.784.64h-.01c-1.046.157-2.092.331-3.117.59l-.03.007c-1.325.337-2.619.82-3.903 1.284l-.009.003c-2.503.905-4.908 2.092-7.279 3.295-3.41 1.73-6.764 3.575-10.08 5.478l-.003.001c-2.833 1.625-5.664 3.255-8.456 4.95a78.858 78.858 0 0 0-5.715 3.824l-.006.004c-1.44 1.058-2.88 2.128-4.228 3.305a52.07 52.07 0 0 0-2.684 2.505c-.005.004-.009.01-.014.013-1.193 1.2-2.284 2.505-3.366 3.804 0 .002-.003.004-.005.006a43.731 43.731 0 0 0-3.915 5.545 37.771 37.771 0 0 0-3.028 6.407c-.802 2.19-1.39 4.462-1.69 6.777l-.005.032a54.962 54.962 0 0 0-.429 7.151v.016c.006 2.435.392 4.86 1.122 7.182l.004.014c.794 2.518 1.887 4.936 3.182 7.235l.006.011c1.424 2.526 3.12 4.894 4.998 7.101a43.11 43.11 0 0 0 6.733 6.336 72.147 72.147 0 0 0 3.455 2.49c.837.562 1.692 1.105 2.587 1.571.813.424 1.683.736 2.56 1 1.182.354 2.391.618 3.605.835l.031.006c2.125.381 4.283.741 6.444.812.894.03 1.79-.053 2.675-.169a41.811 41.811 0 0 0 3.718-.68c2.893-.646 5.696-1.657 8.374-2.924 2.957-1.399 5.77-3.09 8.434-4.988 2.172-1.545 4.347-3.11 6.373-4.845 1.95-1.669 3.725-3.546 5.467-5.426 1.653-1.786 3.325-3.586 4.79-5.534 1.348-1.794 2.528-3.717 3.686-5.636l.021-.033c.987-1.637 1.905-3.315 2.813-4.996a419.094 419.094 0 0 0 4.028-7.69l.015-.029a582.211 582.211 0 0 1 3.71-7.147c.625-1.18 1.231-2.386 1.947-3.515l.005-.008a34.683 34.683 0 0 1 2.245-3.125c.2-.288.454-.554.685-.81.217-.244.442-.48.677-.706a7.925 7.925 0 0 1 1.333-1.06c.714-.44 1.485-.807 2.305-1l.012-.003c.44-.11.752-.378 1.016-.743a1.07 1.07 0 0 1 1.908.377c.165.682.144 1.41-.138 2.06-.354.812-1.077 1.405-1.925 1.642l-.012.003c-.449.13-.865.372-1.249.632-.69.467-1.252 1.15-1.77 1.792a32.87 32.87 0 0 0-2.079 2.87c-.677 1.054-1.264 2.173-1.869 3.268a697.757 697.757 0 0 0-3.837 7.066 380.539 380.539 0 0 1-4.218 7.67c-.975 1.718-1.964 3.432-3.029 5.097-1.267 1.981-2.569 3.966-4.08 5.77-1.61 1.92-3.297 3.777-4.98 5.631l-.01.01c-1.79 1.971-3.617 3.934-5.61 5.703l-.02.016c-2.059 1.825-4.302 3.448-6.542 5.042-2.798 1.992-5.74 3.784-8.827 5.295l-.018.01c-2.858 1.397-5.862 2.506-8.968 3.21l-.004.001a44.12 44.12 0 0 1-3.982.737c-1.049.14-2.11.232-3.169.197-2.328-.077-4.649-.503-6.927-.963-2.352-.475-4.742-1.054-6.923-2.08-.002-.003-.005-.004-.008-.005-1.02-.48-1.99-1.065-2.938-1.677a63.147 63.147 0 0 1-3.642-2.568l-.006-.005a45.054 45.054 0 0 1-7.232-6.774c-2.013-2.364-3.819-4.909-5.322-7.626-1.382-2.499-2.539-5.127-3.37-7.86a27.038 27.038 0 0 1-1.174-8.094ZM403.801 403.752a6.819 6.819 0 0 1 .727-1.836l.018-.032a7.137 7.137 0 0 1 1.171-1.508c.718-.704 1.756-.936 2.728-.995.871-.052 1.811-.034 2.617.34l.006.003c.636.296 1.188.747 1.645 1.276l.012.013a5.367 5.367 0 0 1 1.075 2.003c.141.49.186 1.005.212 1.511.035.705.021 1.411-.007 2.115v.006c-.06 1.436-.195 2.881-.526 4.282a.083.083 0 0 1-.004.015c-.265 1.118-.682 2.224-1.373 3.152-.747 1.002-1.912 1.526-3.158 1.337-.819-.125-1.682-.352-2.325-.904a6.442 6.442 0 0 1-1.194-1.399 7.088 7.088 0 0 1-.826-1.754c-.285-.917-.243-1.936-.187-2.883l.013-.196a25.16 25.16 0 0 1-.52-2.16c-.147-.769-.286-1.612-.104-2.386Zm2.256 2.064c.618.041 1.093.464 1.317 1.032a.45.45 0 0 1 .013.033c.274.66.4 1.377.485 2.081a.748.748 0 0 1-1.215.672c.007.09.016.178.026.267.028.247.062.504.144.74l.014.04c.141.39.338.76.578 1.1.23.321.485.63.787.885l.007.006c.082.066.192.104.29.138.253.088.521.135.787.17l.026.003c.337.035.575-.11.778-.383.492-.66.776-1.464.974-2.256.31-1.243.432-2.53.49-3.807.03-.632.046-1.267.021-1.899-.013-.328-.026-.673-.112-.992a2.873 2.873 0 0 0-.565-1.1c-.233-.278-.51-.527-.84-.682a1.383 1.383 0 0 0-.458-.1 5.293 5.293 0 0 0-.975.016l-.039.003a3.48 3.48 0 0 0-.833.168.87.87 0 0 0-.325.175c-.315.308-.59.655-.82 1.031a3.89 3.89 0 0 0-.475 1.146c-.114.483-.09 1.016-.08 1.513ZM415.001 407.42l.023-.035c.421-.635.921-1.217 1.47-1.746a5.541 5.541 0 0 1 2.225-1.333l.006-.002a6.93 6.93 0 0 1 2.163-.318h.02a6.153 6.153 0 0 1 1.941.363l.005.002a4.514 4.514 0 0 1 1.671 1.051l.012.013c.744.767.82 1.952.78 2.962v.006c-.036.874-.093 1.777-.348 2.618l-.005.017a5.254 5.254 0 0 1-1.004 1.834l-.006.006c-.482.57-1.108 1.02-1.836 1.211l-.002.001a4.92 4.92 0 0 1-1.804.13c-.904-.103-1.69-.67-2.347-1.26-.818-.737-1.35-1.766-1.234-2.884l.003-.029c.064-.678.335-1.39.995-1.69.605-.274 1.251-.059 1.778.281a.867.867 0 0 1-.562 1.587c.084.341.346.61.62.824.228.178.466.35.724.481.093.047.2.105.305.116l.012.001c.27.027.544.008.808-.057.094-.03.184-.059.272-.118.113-.076.211-.173.3-.276.234-.275.415-.593.525-.939.2-.624.224-1.319.253-1.968.018-.4.061-.886-.135-1.25-.17-.177-.39-.3-.619-.385a3.942 3.942 0 0 0-1.2-.232c-.474-.019-.948.067-1.4.202a3.115 3.115 0 0 0-1.257.758c-.44.425-.853.884-1.21 1.381l-.005.007c-.655.925-1.184 1.94-1.68 2.956a.733.733 0 0 1-1.39-.372c.094-1.352.372-2.769 1.133-3.915ZM359.636 415.446c.156-.853.4-1.689.682-2.508.333-.965.728-1.909 1.16-2.835.62-1.332 1.415-2.585 2.228-3.806.834-1.25 1.716-2.489 2.752-3.583a20.39 20.39 0 0 1 2.61-2.33 19.114 19.114 0 0 1 2.71-1.715c1.082-.555 2.222-.994 3.367-1.398a30.12 30.12 0 0 1 4.076-1.129 19.206 19.206 0 0 1 4.393-.34c1.202.037 2.576.16 3.591.873a.813.813 0 0 1-.837 1.391c-.306-.156-.66-.216-.998-.253a9.593 9.593 0 0 0-1.72-.009 24.34 24.34 0 0 0-3.94.577l-.038.01a30.36 30.36 0 0 0-3.705 1.138l-.024.008c-1.026.387-2.049.802-3.016 1.321l-.02.01c-.81.437-1.574.96-2.298 1.528l-.024.018c-.8.632-1.55 1.327-2.248 2.071l-.004.004c-.924.987-1.698 2.117-2.429 3.25l-.01.015c-.722 1.118-1.433 2.26-1.989 3.471l-.003.007a24.502 24.502 0 0 0-1.03 2.59 16.119 16.119 0 0 0-.557 2.113c-.15.826-.17 1.678-.173 2.515-.003.748.202 1.423.715 1.98a.806.806 0 0 1-.747 1.335 3.244 3.244 0 0 1-1.845-1.048c-.535-.622-.79-1.433-.807-2.246v-.03c-.019-.998-.002-2.01.178-2.995ZM434.627 409.081l.001-.003c.116-.649.376-1.284.85-1.754.512-.507 1.216-.75 1.93-.72a7.709 7.709 0 0 1 2.432.513c.884.34 1.717.808 2.517 1.31.986.618 1.918 1.32 2.807 2.071.81.683 1.597 1.402 2.286 2.21.76.886 1.443 1.84 2.117 2.793.691.976 1.373 1.963 1.98 2.994l.014.023c.622 1.06 1.167 2.166 1.702 3.272l.006.012a1055.784 1055.784 0 0 1 2.724 5.683c.473.995.961 1.985 1.488 2.952.32.587.65 1.178 1.046 1.718.497.676 1.048 1.325 1.694 1.863l.006.005c.354.293.77.555 1.232.62.52.073 1.05.095 1.573.044a2.53 2.53 0 0 0 1.101-.387 4.193 4.193 0 0 0 1.062-.96c.427-.546.71-1.207.96-1.847.333-.86.561-1.762.686-2.677l.001-.003c.2-1.467.168-2.974.14-4.45v-.008c-.035-1.726-.147-3.46-.458-5.16-.242-1.328-.573-2.643-1.046-3.907-.342-.915-.704-1.838-1.188-2.689a15.277 15.277 0 0 0-.854-1.288 71.029 71.029 0 0 0-1.586-2.115 33.496 33.496 0 0 0-4.213-4.503c-1.866-1.659-3.878-3.15-5.929-4.57-2.045-1.415-4.124-2.788-6.284-4.02-.717-.41-1.445-.808-2.203-1.136l-.012-.005c.241.19.494.362.748.53a.787.787 0 0 1-.833 1.333c-.579-.344-1.15-.71-1.665-1.146-.386-.326-.756-.703-.974-1.166l-.02-.045c-.255-.542-.162-1.182.293-1.594.382-.345.91-.45 1.41-.465h.006c.654-.017 1.306.192 1.912.42.86.324 1.686.735 2.497 1.165l.033.018c2.254 1.197 4.42 2.56 6.543 3.972l.02.014c2.161 1.44 4.28 2.958 6.244 4.66a36.216 36.216 0 0 1 4.623 4.814l.012.014a70.012 70.012 0 0 1 1.668 2.167c.362.495.722.996 1.031 1.527l.006.011c.564.973 1.002 2.02 1.411 3.065l.008.021c.552 1.414.943 2.888 1.227 4.378a.164.164 0 0 1 .003.011c.353 1.858.478 3.757.506 5.646.024 1.628.038 3.284-.186 4.901a14.827 14.827 0 0 1-.86 3.336c-.353.906-.772 1.81-1.367 2.584a7.003 7.003 0 0 1-1.806 1.651l-.002.001a5.535 5.535 0 0 1-2.373.832l-.01.001a9.399 9.399 0 0 1-2.267-.054c-1.014-.143-1.938-.636-2.714-1.289-.825-.694-1.536-1.515-2.172-2.382-.476-.647-.874-1.35-1.256-2.057a62.048 62.048 0 0 1-1.552-3.108c-.894-1.9-1.788-3.8-2.685-5.698-.497-1.052-1-2.107-1.573-3.12-.544-.965-1.18-1.878-1.823-2.778 0-.002-.002-.004-.004-.005-.628-.88-1.263-1.762-1.966-2.585-.589-.69-1.27-1.302-1.962-1.888a19.742 19.742 0 0 0-2.477-1.808l-.016-.01c-.64-.389-1.305-.76-2.01-1.013l-.033-.01a4.281 4.281 0 0 0-1.179-.238c0 .008-.004.027-.004.027 0 .005-.002.01-.003.014-.063.377-.12.768-.09 1.151a.896.896 0 0 0 .138.448.942.942 0 0 1-.747 1.479c-.807.024-1.539-.426-1.949-1.11-.447-.749-.492-1.663-.343-2.503Z"/><path d="M415.477 481.57c.041.125.145.242.228.335v.001c.39.433.856.8 1.321 1.148.7.524 1.462.96 2.24 1.355a17.39 17.39 0 0 0 2.361.983 15.773 15.773 0 0 1-.955-2.54 10.3 10.3 0 0 1-.342-3.403c.077-1.195.44-2.533 1.608-3.102.703-.34 1.49-.47 2.265-.498h.012c.94-.032 1.877.147 2.772.425.004.001.01.002.013.004 1.034.322 2.01.814 2.911 1.41.004.003.01.006.013.01.89.586 1.73 1.246 2.502 1.981.684.651 1.327 1.36 1.826 2.164l.003.005c.43.694.756 1.463.86 2.277a.022.022 0 0 1 .001.008c.101.8-.022 1.62-.4 2.335l-.002.003c-.465.875-1.337 1.441-2.213 1.845a.049.049 0 0 0-.007.003c-1.04.48-2.175.731-3.308.87l-.03.003c-.312.038-.625.07-.938.097a32.73 32.73 0 0 0 1.055 1.12c.892.902 1.838 1.75 2.841 2.525l.023.018a27.181 27.181 0 0 0 2.967 1.996l.011.006a21.036 21.036 0 0 0 3.032 1.452l.031.012c1.04.395 2.105.725 3.187.99a44.71 44.71 0 0 0 3.537.711c.778.126 1.571.174 2.357.212 1.244.06 2.49.075 3.733.074 2.163 0 4.34.002 6.498-.179a36.809 36.809 0 0 0 3.915-.527 25.968 25.968 0 0 0 3.353-.873 15.983 15.983 0 0 0 1.902-.768 2.543 2.543 0 0 1-.124-.447c-.183-1.012.226-1.987.894-2.733a6.257 6.257 0 0 1 2.043-1.506c.64-.295 1.345-.569 2.061-.523h.002a1.97 1.97 0 0 1 1.36.651c.32.366.477.841.486 1.322.012.68-.236 1.332-.556 1.92a1.255 1.255 0 0 1-.028.05c-.308.55-.714 1.042-1.158 1.491.363.18.735.341 1.115.481.012.004.023.01.034.013a39.26 39.26 0 0 0 2.92.93l.033.01c1.156.32 2.343.52 3.535.652a34.559 34.559 0 0 0 4.228.2h.02c1.55-.019 3.1-.075 4.648-.16a93.54 93.54 0 0 0 4.819-.397H493a97.53 97.53 0 0 0 4.99-.674 79.112 79.112 0 0 0 5.018-.967c1.414-.32 2.82-.7 4.18-1.206 1.026-.382 2.037-.82 2.983-1.375.13-.077.26-.155.388-.236a8.597 8.597 0 0 1-.482-.593 7.972 7.972 0 0 1-1.133-2.127c-.32-.92-.411-1.91-.442-2.878-.028-.903-.058-1.947.388-2.764.434-.795 1.279-1.202 2.123-1.415.639-.16 1.308-.284 1.968-.233 1.038.081 1.819.901 2.414 1.68.806 1.054 1.173 2.37 1.292 3.674.112 1.24.062 2.591-.591 3.69a10.242 10.242 0 0 1-.438.671c.116.056.232.112.349.165l.032.016c.884.403 1.795.744 2.716 1.05l.047.016c1.159.383 2.335.713 3.517 1.015l.04.011a88.124 88.124 0 0 0 4.269.968c1.46.294 2.947.444 4.435.47h.032c1.645.026 3.292.01 4.936-.043h.01a44.159 44.159 0 0 0 4.926-.44c1.735-.255 3.445-.666 5.12-1.176a45.548 45.548 0 0 0 15.234-7.702c1.275-.944 2.507-1.953 3.636-3.07a27.686 27.686 0 0 0 2.617-2.953 20.94 20.94 0 0 0 1.812-2.805c.414-.783.786-1.595 1.043-2.444a6.823 6.823 0 0 0 .315-1.928 7.794 7.794 0 0 0-.18-1.763 3.552 3.552 0 0 0-.737-1.506 43.2 43.2 0 0 1-4.782 2.06 25.914 25.914 0 0 1-4.31 1.148c-1.254.216-2.522.371-3.795.403-.964.024-1.93.022-2.892-.048-1.01-.075-2.001-.382-2.831-.972-.695-.494-1.297-1.123-1.702-1.877-.504-.935-.54-2.042-.408-3.074.146-1.14.625-2.284 1.634-2.915.683-.427 1.442-.717 2.216-.927.592-.16 1.208-.23 1.817-.289a43.4 43.4 0 0 1 2.673-.158h.034c1.633-.057 3.296-.093 4.919.131a19.063 19.063 0 0 1 3.354.771l.037.012a35.11 35.11 0 0 1 2.774 1.04c.342.144.679.302 1.009.474.739-.41 1.466-.843 2.177-1.3a23.349 23.349 0 0 0 3.278-2.52 17.42 17.42 0 0 0 2.45-2.795c.69-.99 1.293-2.04 1.796-3.138.474-1.033.877-2.1 1.17-3.198.16-.6.233-1.225.288-1.843.085-.969.11-1.943.112-2.915a58.477 58.477 0 0 0-.057-2.932c-.03-.603-.065-1.21-.166-1.806-.128-.76-.353-1.508-.716-2.19a8.661 8.661 0 0 0-1.36-1.879c-.605-.64-1.292-1.2-2.023-1.689a17.087 17.087 0 0 0-2.606-1.423 13.795 13.795 0 0 0-2.918-.91c-.636-.125-1.287-.18-1.934-.22a42.2 42.2 0 0 0-2.89-.068 39.41 39.41 0 0 0-2.792.095c-.523.04-1.061.083-1.571.215l-.005.002c-.847.22-1.687.467-2.52.74-.546.18-1.094.36-1.642.538a1.385 1.385 0 0 1-.11.032c-.627.167-1.307.024-1.79-.435a1.825 1.825 0 0 1-.43-.637c-.283-.703-.081-1.44.379-2 .159-.196.338-.375.518-.55h.002c.777-.75 1.458-1.612 2.143-2.444.839-1.018 1.665-2.053 2.415-3.14a48.975 48.975 0 0 0 1.784-2.789 40.019 40.019 0 0 0 1.635-3.04c.474-.98.918-1.975 1.312-2.99.296-.762.495-1.566.537-2.384.04-.788.042-1.58-.03-2.368-.04-.45-.15-.906-.394-1.29-.301-.472-.758-.839-1.214-1.153a16.936 16.936 0 0 0-2.362-1.335c-1.008-.477-2.075-.824-3.152-1.105a22.74 22.74 0 0 0-3.923-.645 53.821 53.821 0 0 0-4.344-.174c-1.397 0-2.794.027-4.19.09-1.138.051-2.278.173-3.391.426l-.024.005c-.771.176-1.547.427-2.22.852-.168.107-.336.22-.498.341-.328.668-.682 1.333-1.133 1.921l-.52.677c-.461.601-1.255.876-1.99.607a1.696 1.696 0 0 1-.646-.422 1.74 1.74 0 0 1-.362-1.805v-.002l.208-.562c.26-.702.773-1.284 1.31-1.789l.032-.029c.094-.185.186-.37.277-.552a7.47 7.47 0 0 0 .459-1.079c.055-.17.112-.354.115-.534a9.46 9.46 0 0 0-.143-1.662c-.074-.455-.398-.839-.724-1.144a9.738 9.738 0 0 0-1.958-1.416 19.354 19.354 0 0 0-2.654-1.18 53.33 53.33 0 0 0-3.602-1.157 52.9 52.9 0 0 0-4.27-1.025 21.463 21.463 0 0 0-4.312-.417 54.108 54.108 0 0 0-4.28.187c-1.193.1-2.376.356-3.484.815l-.008.003c-.98.407-1.914.935-2.731 1.614a13.613 13.613 0 0 0-2.005 2.018c-.378.48-.748.976-1.055 1.506a7.34 7.34 0 0 1-.251.502l-.017.03-.391.714a.767.767 0 0 1-.022.04l-.016.03a1.591 1.591 0 0 1-.996.785 1.602 1.602 0 0 1-1.78-2.384l.023-.038.424-.737c.148-.255.259-.534.369-.806.207-.515.393-1.038.572-1.562.508-1.483.568-3.12.548-4.672-.02-1.617-.06-3.254-.303-4.856-.183-1.206-.533-2.383-.98-3.518a23.598 23.598 0 0 0-1.914-3.783 27.698 27.698 0 0 0-2.717-3.666 21.842 21.842 0 0 0-3.24-3.04c-1.03-.78-2.162-1.433-3.385-1.853-.975-.334-2.017-.526-3.048-.41a6.75 6.75 0 0 0-2.6.832c-.877.5-1.626 1.197-2.263 1.973a19.57 19.57 0 0 0-2.062 3.101 50.17 50.17 0 0 0-3.343 7.643c0 .004-.003.008-.004.012a37.145 37.145 0 0 0-1.158 4.3c-.354 1.681-.468 3.408-.44 5.124.012.815.043 1.632.128 2.444.053.512.121 1.032.272 1.527.201.661.5 1.3.95 1.83l.02.021c.915.983 2.157 1.661 3.357 2.231a.678.678 0 0 1-.572 1.23c-1.365-.62-2.733-1.318-3.908-2.26l-.023-.018c-.788-.599-1.362-1.434-1.742-2.343l-.003-.006c-.256-.613-.397-1.273-.503-1.926a24.34 24.34 0 0 1-.257-2.655c0-.013 0-.026-.002-.039-.092-1.89.001-3.798.391-5.652a36.247 36.247 0 0 1 1.264-4.593 59.023 59.023 0 0 1 1.612-4.078 50.114 50.114 0 0 1 1.916-3.909 22.546 22.546 0 0 1 2.305-3.459l.002-.003c.812-.995 1.771-1.88 2.882-2.534l.013-.007a8.993 8.993 0 0 1 3.495-1.158h.007c1.379-.162 2.773.054 4.084.483l.017.005c1.473.485 2.843 1.246 4.082 2.173l.007.005a27.978 27.978 0 0 1 3.65 3.288l.03.032a26.843 26.843 0 0 1 3.05 3.936c.004.004.006.01.009.013a29.926 29.926 0 0 1 2.224 4.176c.56 1.305 1.002 2.666 1.245 4.066l.006.031c.297 1.721.38 3.481.435 5.224v.028c.026.823.026 1.658-.028 2.49 1.037-.784 2.189-1.407 3.392-1.896 1.353-.55 2.792-.868 4.246-.998h.005c1.489-.132 2.984-.2 4.478-.215h.005a25.52 25.52 0 0 1 4.826.42l.02.002a48.08 48.08 0 0 1 4.493 1.038h.003a112.034 112.034 0 0 1 3.81 1.15c1.035.334 2.056.721 3.036 1.195.95.46 1.843 1.038 2.65 1.72.867.733 1.567 1.68 1.833 2.797v.003c.166.694.285 1.401.32 2.114.354-.103.71-.189 1.069-.264a26.553 26.553 0 0 1 3.852-.489h.02a85.916 85.916 0 0 1 4.307-.143h.013c1.528-.014 3.057.04 4.58.163a29.32 29.32 0 0 1 4.409.68l.032.007c1.253.298 2.49.674 3.673 1.188a18.77 18.77 0 0 1 2.855 1.518l.027.018c.812.537 1.567 1.191 2.11 2.006l.017.026c.524.795.824 1.715.95 2.656a16.815 16.815 0 0 1 .116 2.883l-.001.021a11.765 11.765 0 0 1-.673 3.4l-.02.055a35.343 35.343 0 0 1-1.344 3.254l-.01.018a42.373 42.373 0 0 1-1.737 3.311l-.008.014a50.244 50.244 0 0 1-1.892 3.006 45.792 45.792 0 0 1-1.998 2.686c1.474-.135 2.967-.134 4.444-.15h.008c1.798-.019 3.645-.022 5.419.315l.009.002a18.885 18.885 0 0 1 3.587 1.054c1.079.438 2.12.968 3.102 1.596l.026.017a16.067 16.067 0 0 1 2.588 2.052l.042.042a11.273 11.273 0 0 1 1.926 2.535l.013.024a11.213 11.213 0 0 1 1.137 3.192c.143.711.214 1.437.269 2.16a55.85 55.85 0 0 1 .139 3.115v.041a37.247 37.247 0 0 1-.051 3.188c-.055.831-.145 1.668-.343 2.48l-.01.037a22.761 22.761 0 0 1-1.324 3.81 23.226 23.226 0 0 1-2.093 3.731l-.006.01a21.928 21.928 0 0 1-2.936 3.415l-.018.017a25.483 25.483 0 0 1-3.8 2.96c-.357.231-.72.455-1.085.674a6.648 6.648 0 0 1 1.092 2.357c.199.8.305 1.621.342 2.444v.001a9.88 9.88 0 0 1-.34 2.963l-.001.004c-.286 1.084-.715 2.128-1.208 3.132l-.025.05a23.013 23.013 0 0 1-2.04 3.323l-.02.026a30.408 30.408 0 0 1-2.924 3.4c-1.242 1.26-2.607 2.393-4.027 3.445a50.77 50.77 0 0 1-4.852 3.178l-.005.003a65.71 65.71 0 0 1-5.531 2.83 46.392 46.392 0 0 1-6.02 2.28c-1.86.552-3.753.998-5.673 1.278a46.04 46.04 0 0 1-5.373.466 85.039 85.039 0 0 1-5.175-.013 28.558 28.558 0 0 1-5.121-.627 78.485 78.485 0 0 1-4.456-1.1 52.18 52.18 0 0 1-3.781-1.202 32.377 32.377 0 0 1-3.055-1.276 14.389 14.389 0 0 1-1.318-.722 15.122 15.122 0 0 1-1.357.933c-1.101.677-2.287 1.212-3.497 1.664l-.002.001c-1.498.56-3.043.99-4.6 1.355l-.012.003a74.395 74.395 0 0 1-5.233 1.028c-1.72.276-3.448.508-5.182.687-1.66.172-3.324.306-4.99.4a86.83 86.83 0 0 1-4.84.138c-1.556 0-3.112-.09-4.654-.295-1.377-.182-2.748-.448-4.078-.85a41.706 41.706 0 0 1-3.175-1.093 15.944 15.944 0 0 1-2.667-1.36c-.978.611-2.035 1.091-3.116 1.49l-.042.015a27.649 27.649 0 0 1-3.756 1.07 35.54 35.54 0 0 1-4.259.625l-.008.001c-2.246.2-4.51.22-6.763.24h-.015a81.159 81.159 0 0 1-3.885-.044c-.916-.036-1.836-.088-2.744-.226l-.017-.002a43.342 43.342 0 0 1-3.815-.748 26.69 26.69 0 0 1-3.652-1.175 26.366 26.366 0 0 1-3.5-1.733 28.5 28.5 0 0 1-3.35-2.316 32.45 32.45 0 0 1-3.145-2.888 34.91 34.91 0 0 1-2.828-3.343 13.813 13.813 0 0 1-2.9-.535h-.003a21.97 21.97 0 0 1-3.427-1.349l-.013-.006c-.958-.477-1.893-1.014-2.75-1.656-.668-.5-1.316-1.046-1.844-1.695-.494-.607-.859-1.325-.969-2.106v-.004c-.134-.954.35-1.84 1.084-2.42.581-.457 1.282-.744 1.981-.965a1.036 1.036 0 0 1 1.11 1.648c-.266.32-.525.654-.723 1.021a1.58 1.58 0 0 0-.126.281Zm146.479-14.07c-1.46-.249-2.973-.24-4.448-.225-.83.008-1.66.028-2.485.1-.435.037-.888.073-1.308.201l-.041.012c-.416.13-.838.313-1.163.61a.36.36 0 0 0-.076.147 2.203 2.203 0 0 0-.09.666c-.004.28.006.563.059.838.02.108.046.227.102.323.16.274.415.486.679.657.314.203.694.274 1.062.288.846.031 1.694.001 2.538-.048 1.094-.065 2.182-.234 3.256-.449l.05-.009a26.505 26.505 0 0 0 3.659-1.032 35.084 35.084 0 0 0 2.23-.887 28.65 28.65 0 0 0-1.202-.46 16.648 16.648 0 0 0-2.822-.733Zm-48.952 19.452a3.422 3.422 0 0 0-.415-.522c-.278.02-.562.104-.821.177l-.04.01a1.878 1.878 0 0 0-.105.035l-.003.06a10.451 10.451 0 0 0 .028 1.094c.042.641.1 1.32.33 1.926.17.447.416.861.71 1.235l.032.04c.094.117.193.23.296.34.108-.144.209-.292.304-.445.102-.165.147-.369.18-.557.076-.412.082-.835.068-1.252-.025-.732-.141-1.523-.564-2.14Zm-84.193-1.08c.812-.086 1.637-.229 2.397-.538.18-.073.357-.154.522-.257a.657.657 0 0 0 .195-.172.83.83 0 0 0 .028-.384c-.044-.36-.219-.7-.406-1.006-.353-.573-.826-1.073-1.31-1.535a15.935 15.935 0 0 0-2.08-1.664c-.654-.44-1.359-.813-2.11-1.054-.562-.179-1.155-.317-1.747-.3-.247.006-.518.02-.763.094a3.181 3.181 0 0 0-.079.591v.004a6.884 6.884 0 0 0 .252 2.342l.005.02c.256.878.627 1.721 1.061 2.526l.012.023c.27.5.566.984.881 1.457a29.715 29.715 0 0 0 3.142-.148ZM399.278 382.74v-.003c.026-1.226.634-2.38 1.322-3.365h.002a28.05 28.05 0 0 1 2.347-2.943l.026-.028a12.417 12.417 0 0 1 2.92-2.322l.02-.01a10.328 10.328 0 0 1 3.727-1.252l.015-.002c1.011-.139 2.048-.25 3.07-.17l.015.001a6.87 6.87 0 0 1 2.461.69c.752.37 1.462.821 2.126 1.333.99.762 1.86 1.687 2.708 2.597l.001.002a33.857 33.857 0 0 1 3.237 4.083c.906 1.332 1.653 2.771 2.333 4.23.884 1.896 1.652 3.845 2.364 5.811a.864.864 0 0 1-1.577.694c-1.642-3.143-3.323-6.302-5.32-9.238a31.598 31.598 0 0 0-2.982-3.77c-.744-.799-1.505-1.628-2.38-2.288l-.012-.009a10.552 10.552 0 0 0-1.679-1.04 4.378 4.378 0 0 0-1.522-.44c-.833-.076-1.689.023-2.515.127a7.897 7.897 0 0 0-2.826.902 10.262 10.262 0 0 0-2.397 1.818 33.115 33.115 0 0 0-2.288 2.62c-.527.665-1.068 1.411-1.292 2.243a2.334 2.334 0 0 0-.099.561c.323.128.696.116 1.032.062a.734.734 0 1 1 .234 1.45c-.698.113-1.43.093-2.089-.182l-.02-.009c-.837-.345-.979-1.355-.962-2.154Z"/><path d="M428.57 444.905c.06-.844.313-1.747 1.01-2.288.672-.522 1.538-.5 2.285-.166a.987.987 0 0 1-.499 1.884c-.117-.012-.1.011-.116.126a3.181 3.181 0 0 0-.026.516c.01.528.033 1.06.11 1.582.038.274.086.56.195.817l.005.011c.451 1.008 1.08 1.937 1.731 2.824a.883.883 0 0 1-1.138 1.293c-1.249-.69-2.462-1.633-3.108-2.938l-.006-.01a.708.708 0 0 1-.023-.049c-.527-1.094-.503-2.42-.42-3.602ZM436.466 503.36v-.002c.075-.51.15-1.022.223-1.532.04-.275.118-.543.24-.794a2.59 2.59 0 0 1 3.356-1.258 2.668 2.668 0 0 1 1.277 1.156l.754 1.353.001.002c.532.957.762 2.075.957 3.141.27 1.466.44 2.95.588 4.432v.001c.273 2.722.535 5.448.702 8.18.153 2.5.22 5.004.262 7.508v.044c.048 2.735.077 5.47.078 8.206 0 2.773-.41 5.59-1.41 8.185a2.658 2.658 0 0 1-4.817.31c-1.4-2.584-2-5.57-2-8.494 0-2.718-.012-5.436-.03-8.154-.015-2.418-.04-4.837-.104-7.254a1361.21 1361.21 0 0 1-.185-8.08c-.029-1.43-.05-2.862-.034-4.293.01-.884.015-1.78.142-2.658ZM545.373 520.918c.066-4.106.107-8.22.303-12.323.094-1.965.22-3.93.414-5.888.163-1.639.43-3.403 1.3-4.834l.744-1.225c.207-.34.489-.634.825-.848a2.509 2.509 0 0 1 2.715.01c.384.254.689.612.88 1.031.154.337.222.7.228 1.066l.024 1.434c.006.321.009.643.01.965l.079.56c.18 1.264.464 2.532.979 3.705a1.575 1.575 0 0 1-1.053 2.16c.008.657.018 1.314.03 1.971v.006c.073 4.071.132 8.143.193 12.215.036 2.361.074 4.723.137 7.084.028 1.052.03 2.115.128 3.164.043.466.086.938.158 1.403.64.623.898 1.547.664 2.416-.277 1.034-.835 1.967-1.74 2.573a4.082 4.082 0 0 1-3.584.445c-1.207-.418-2.16-1.376-2.642-2.549l-.038-.094c-.44-1.097-.627-2.286-.736-3.457-.117-1.258-.091-2.534-.091-3.796 0-2.398.034-4.796.073-7.194Z"/><path d="M342.713 504.865s-3.046 11.28-8.874 11.145c-2.089-.049-6.613-.482-8.523-1.29-1.875-.793-3.42-1.98-4.906-3.347-2.019-1.858-3.828-4.075-5.338-6.354-.793-1.197-1.253-2.944-2.52-3.716-2.699-1.645-6.767-1.59-9.829-1.771-1.331-.079-2.935-.371-4.254-.029-.369.096-2.979 3.962-3.794 5.754-1.43 3.146-4.766 5.609-8.231 5.31-3.937-.34-1.118-6.528-.076-8.525 1.557-2.986 4.212-4.005 3.289-5.335-1.321-1.903-10.098-1.703-11.969-2.991-4.684-3.224-10.588-6.327-16.341-6.984-5.163-.59-10.299 2.6-15.039 4.197-1.854.624-4.004.426-5.774 1.065-2.195.794-3.969 2.351-6.433 2.413-1.873.047-3.959-1.847-5.701-2.386-3.746-1.158-7.384-1.621-11.359-1.654-2.439-.021-4.982 1.62-7.339 2.165-5.136 1.187-10.884 1.464-16.028.252-3.603-.849-6.037-3.362-9.17-5.089-3.037-1.675-6.921-2.629-10.342-3.32-4.123-.833-8.207.343-12.287.969-2.817.432-5.692.337-8.497.81-2.412.408-4.74 1.369-7.119 1.95-2.987.73-6.006 1.362-8.667 2.988-3.778 2.308-5.886 6.107-9.164 8.842-3.138 2.618-7.593 3.044-10.608 5.706-2.278 2.011-2.221 6.182-2.51 8.958-.121 1.155-.239 2.322-.211 3.485.101 4.196 4.317 7.34 8.112 8.357 1.364.366 2.869.302 4.188.768 3.256 1.151 5.837 3.652 9.108 4.83 3.783 1.363 7.458.267 11.233 1.01 2.097.413 4.039 1.538 6.052 2.228 3.41 1.17 6.923 1.902 10.508 2.262 4.994.501 10 .392 15.008.558 6.769.225 12.97 2.796 19.627 3.247 5.245.356 10.492-.678 15.753-.482 5.947.221 11.82 1.545 17.778 1.592 3.266.027 6.461-1.008 9.732-.857 4.37.201 8.682 1.555 13.07 1.89 6.432.491 12.907.33 19.353.48 5.871.136 11.763.573 17.638.368 4.166-.145 8.061-1.948 12.214-2.293 6.966-.579 13.86 1.634 20.816.385 3.916-.704 6.755-2.726 10.253-4.38 2.235-1.057 4.652-1.628 6.927-2.584 3.03-1.273 13.353-11.254 10.943-17.222-1.672-4.14-1.171-8.64-3.4-10.479-3.554-2.933-7.299-2.896-7.299-2.896Z" style="fill:#f1f1f1" transform="translate(-114.674 -88.67) scale(1.47888)"/><path d="M338.41 514.107c1.529.05 3.474-.033 4.862.749 3.397 1.914 2.691 6.918.655 9.538-2.867 3.693-7.133 4.978-11.492 5.99-5.138 1.193-10.429 1.263-15.625 2.053-5.015.762-9.894 2.366-15.006 2.43-4.044.05-8.011-.809-12.041-.871-6.707-.102-13.251 2.733-20.074 1.463-4.137-.77-7.109-3.68-10.793-5.392-1.256-.583-2.588-.97-3.928-1.307-1.047-.264-2.102-.497-3.153-.742-3.638-.848-10.46-1.687-10.838-6.64-.155-2.032 1.902-3.609 3.477-4.485 2.15-1.196 4.621-1.823 7.006-2.378 1.784-.415 3.625-.679 4.907-2.127 1.156-1.306 1.747-2.932 3.071-4.129 2.002-1.809 4.573-2.73 6.761-4.257 2.171-1.514 3.655-4.055 6.042-5.222 3.612-1.765 11.134-1.364 14.32 1.882.656.668-.684 1.969-1.004 2.601-.69 1.367-1.045 6.74 1.245 7.197 1.02.203 2.492-.641 3.378-1.06 2.233-1.055 4.648-2.406 7.096-2.746 2.51-.349 5.136.192 7.639.416 4.213.377 8.436.712 12.589 1.54 2.383.475 3.881 2.559 5.688 4.021 2.852 2.308 7.21 4.181 10.969 3.027" style="fill:#e4e4e4" transform="translate(-115.344 -87.882) scale(1.47888)"/><path d="M336.168 634.14c-.815 2.328-1.807 4.595-2.844 6.829a395.792 395.792 0 0 1-3.447 7.273l-.004.009c-.722 1.475-1.45 2.952-2.258 4.382l-.006.01a54.393 54.393 0 0 1-1.88 3.069l-.006.01c-.86 1.308-1.834 2.54-2.834 3.742l-.002.003a39.949 39.949 0 0 1-3.775 3.965l-.005.004c-1.23 1.12-2.535 2.164-3.942 3.056-.002 0-.005.003-.008.005-1.087.689-2.22 1.34-3.428 1.795-.004 0-.008.003-.011.004-1.025.384-2.124.594-3.22.495-1.01-.091-2.018-.413-2.782-1.104-.821-.744-1.188-1.822-1.192-2.91-.004-1.137.135-2.28.27-3.406.214-1.785.727-3.527 1.376-5.2.956-2.462 2.243-4.8 3.549-7.09a103.683 103.683 0 0 0 1.912-3.471c.31-.596.64-1.2.867-1.834l.005-.015c.099-.278.19-.574.24-.874-1.063.104-2.114.34-3.146.609l-.021.006c-1.708.446-3.398.964-5.08 1.5l-.016.006a29.09 29.09 0 0 1-2.81.766c-.738.155-1.494.276-2.25.26l-.042-.001c-.563-.014-1.14-.071-1.665-.288-.978-.404-1.594-1.413-1.363-2.473.166-.764.613-1.431 1.138-1.997.602-.65 1.32-1.185 2.049-1.681a30.586 30.586 0 0 1 2.437-1.502c.823-.454 1.667-.87 2.526-1.253 1.255-.56 2.474-1.201 3.69-1.838 1.155-.604 2.335-1.205 3.41-1.946a9.112 9.112 0 0 0 1.52-1.32l-.25-.008a55.863 55.863 0 0 0-2.556-.036h-.004a126.19 126.19 0 0 0-6.304.172h-.007c-2.087.11-4.176.2-6.265.267h-.03c-1.638.053-3.3.095-4.931-.093l-.023-.002c-.62-.073-1.25-.203-1.805-.498-.788-.418-1.344-1.195-1.353-2.104-.01-.92.36-1.8.804-2.587a14.796 14.796 0 0 1 1.683-2.363c.7-.815 1.479-1.56 2.306-2.246.752-.624 1.534-1.217 2.374-1.716.863-.512 1.772-.945 2.686-1.353l.008-.003a20.266 20.266 0 0 1 3.162-1.136 27.633 27.633 0 0 1 3.328-.626c1.742-.231 3.503-.33 5.257-.42.813-.04 1.626-.073 2.44-.098l-.66-3.336v-.004a119.56 119.56 0 0 1-.2-1.008 28.488 28.488 0 0 1-.384-2.725 40.138 40.138 0 0 1-.127-3.703c.005-1.056 0-2.153.22-3.191l.006-.021a6.07 6.07 0 0 1 .837-2.017 7.058 7.058 0 0 1 1.21-1.444c.717-.63 1.723-.841 2.642-.957l.044-.005c.91-.113 1.905-.156 2.762.22l.018.008c.665.294 1.27.716 1.844 1.157l.037.029c.464.362.887.777 1.3 1.196a51.909 51.909 0 0 1 1.794 1.928l.015.018c1.12 1.257 2.22 2.548 3.16 3.947l.019.028a49.936 49.936 0 0 1 2.086 3.42 53.747 53.747 0 0 1 2.076 4.176c.88 1.957 1.666 3.956 2.429 5.96a619.7 619.7 0 0 0 5.385 14.277l.005.016a75.552 75.552 0 0 0 2.203 5.128c.003.006.006.01.008.017a68.864 68.864 0 0 0 2.599 4.955c.936 1.62 1.918 3.214 2.943 4.78l.005.008c1.53 2.337 3.126 4.633 4.72 6.927a162.115 162.115 0 0 0 2.742 3.842c.6.813 1.208 1.622 1.863 2.392a40.36 40.36 0 0 0 3.048 3.208c.97.913 2.01 1.757 3.125 2.489.002 0 .003.002.005.003a22.384 22.384 0 0 0 3.237 1.773l.034.015c1.084.476 2.203.874 3.345 1.187l.023.006a22.78 22.78 0 0 0 3.509.666c1.206.132 2.419.203 3.632.21h.02c1.095.006 2.19-.123 3.25-.398l.012-.003c1.025-.267 1.979-.756 2.833-1.378 1.068-.778 1.954-1.785 2.718-2.856.976-1.37 1.719-2.894 2.308-4.464.544-1.451 1.074-2.917 1.47-4.416.447-1.691.715-3.434.98-5.161.277-1.79.553-3.58.804-5.374.228-1.633.356-3.281.475-4.925 0-.005 0-.01.002-.014.15-2.094.26-4.191.324-6.29.087-2.916.098-5.835.104-8.752a98.75 98.75 0 0 0-.096-4.898c-.056-1.167-.136-2.336-.3-3.493a64.224 64.224 0 0 0-1.228-6.255c-.441-1.805-.916-3.612-1.554-5.358-.677-1.857-1.578-3.636-2.49-5.387-.956-1.841-1.934-3.677-3.023-5.445-1.207-1.958-2.542-3.84-3.877-5.712a276.506 276.506 0 0 0-4.204-5.782 78.332 78.332 0 0 0-2.926-3.678 41.228 41.228 0 0 0-2.517-2.736l-.002-.002c-.98-.96-2.055-1.821-3.138-2.66a44.267 44.267 0 0 0-4.541-3.056c-1.35-.798-2.753-1.545-4.24-2.06a.778.778 0 0 1-.043-.015c-1.014-.348-2.065-.632-3.137-.73a7.717 7.717 0 0 0-.527-.028 1.275 1.275 0 0 1-2.121.258 2.894 2.894 0 0 1-.582-1.048 2.328 2.328 0 0 1 .325-1.96c.726-1.05 2.068-1.314 3.264-1.206 1.425.128 2.82.513 4.157 1.01 1.729.644 3.359 1.539 4.926 2.506a45.273 45.273 0 0 1 4.837 3.413c1.189.97 2.36 1.983 3.385 3.129.869.97 1.725 1.953 2.576 2.939l.008.009a79.215 79.215 0 0 1 3.072 3.817l.005.006a304.45 304.45 0 0 1 4.288 5.83c1.383 1.916 2.764 3.836 4.066 5.807l.03.048c1.19 1.807 2.229 3.714 3.232 5.629 0 .002 0 .003.002.005.99 1.89 1.96 3.813 2.696 5.819v.002c.686 1.872 1.208 3.805 1.689 5.738a68.439 68.439 0 0 1 1.331 6.614c0 .003 0 .007.002.01.185 1.27.28 2.555.344 3.838.084 1.694.108 3.392.105 5.089-.006 2.953-.017 5.907-.106 8.859a129.738 129.738 0 0 1-.36 6.478c-.136 1.71-.28 3.42-.485 5.124l-.005.036a174.614 174.614 0 0 1-.77 5.43v.004c-.282 1.86-.574 3.736-1.055 5.557-.43 1.622-.993 3.208-1.577 4.779a.014.014 0 0 1-.002.006c-.7 1.884-1.596 3.706-2.76 5.349l-.003.004c-1.002 1.41-2.18 2.717-3.583 3.739-1.252.912-2.66 1.61-4.163 1.99a16.297 16.297 0 0 1-4.27.487 36.51 36.51 0 0 1-4.073-.3 27.352 27.352 0 0 1-4.045-.84 26.521 26.521 0 0 1-3.881-1.452 28.713 28.713 0 0 1-3.716-2.091 26.439 26.439 0 0 1-3.61-2.895 49.752 49.752 0 0 1-3.304-3.461l-.011-.012c-.715-.825-1.377-1.696-2.028-2.571-.96-1.292-1.89-2.607-2.81-3.93-1.616-2.325-3.234-4.654-4.774-7.033a114.694 114.694 0 0 1-3.03-4.951 64.854 64.854 0 0 1-2.723-5.257 80.056 80.056 0 0 1-2.26-5.406 406.54 406.54 0 0 1-.721-1.94Zm-21.855-13.848c-.972.038-1.944.088-2.915.15h-.022c-1.66.107-3.323.217-4.972.436-.976.129-1.95.296-2.902.546h-.004c-.902.238-1.778.57-2.631.946-.79.348-1.576.715-2.317 1.157a.022.022 0 0 1-.005.003c-.68.408-1.313.897-1.923 1.403a14.907 14.907 0 0 0-1.87 1.83l-.008.01c-.465.55-.891 1.137-1.237 1.769 1.372.148 2.769.126 4.144.105 2.06-.032 4.122-.098 6.18-.2 2.158-.104 4.318-.154 6.477-.155.906 0 1.814.006 2.719.052.575.029 1.172.055 1.729.213h.002a2.817 2.817 0 0 1 2.032 2.225c.205 1.143-.361 2.212-1.09 3.05l-.016.018a11.787 11.787 0 0 1-2.19 1.953c-1.18.814-2.456 1.498-3.715 2.18l-.021.012c-1.26.683-2.524 1.368-3.82 1.979l-.034.016a33.942 33.942 0 0 0-2.244 1.16c-.414.236-.818.487-1.214.75.33-.09.658-.188.984-.29 1.757-.542 3.522-1.062 5.307-1.504 1.308-.323 2.643-.588 3.99-.665.732-.042 1.493.047 2.132.428a2.533 2.533 0 0 1 1.222 2.13c.024.985-.21 1.96-.548 2.878-.282.765-.664 1.496-1.037 2.219a119.324 119.324 0 0 1-1.95 3.585l-.005.01a65.97 65.97 0 0 0-1.98 3.772c-.45.937-.874 1.89-1.214 2.875l-.002.006c-.49 1.415-.875 2.885-.995 4.382-.078.972-.17 1.964-.116 2.94a.95.95 0 0 0 .02.176c.167.092.422.104.59.119.526.048 1.057-.084 1.545-.265.966-.356 1.87-.888 2.74-1.434 1.224-.767 2.359-1.672 3.428-2.641a35.64 35.64 0 0 0 3.425-3.58c.916-1.096 1.812-2.218 2.605-3.408a50.209 50.209 0 0 0 1.772-2.854c.782-1.363 1.483-2.773 2.18-4.18 1.173-2.366 2.253-4.777 3.31-7.195.007-.013.012-.026.018-.04 1.047-2.392 2.053-4.813 2.868-7.297.342-1.04.79-2.103 1.536-2.922.017-.02.035-.037.052-.056-.89-2.456-1.781-4.911-2.675-7.365-.186-.513-.375-1.026-.565-1.538l-16.77.106ZM317.694 577.414a2.564 2.564 0 0 1-.124-.852c.023-1.006.318-1.99.716-2.907.353-.812.787-1.732 1.552-2.237.77-.508 1.718-.433 2.549-.132a3.874 3.874 0 0 1 2.036 1.717c.567.982.622 2.186.547 3.29-.068 1.01-.192 2.053-.563 3.002-.313.803-.777 1.54-1.311 2.213-.731.919-1.827 1.452-3.01 1.34-.81-.075-1.755-.301-2.207-1.05a2.836 2.836 0 0 1-.38-1.433v-.014c-.01-.452.023-.906.056-1.357.039-.527.087-1.054.139-1.58Zm1.604 2.827v.014c.01.065.02.099.045.128.03.006.063.01.094.013.225.023.453.01.677-.005.373-.026.652-.233.874-.524l.016-.021c.06-.08.118-.16.175-.241-.658-.06-1.318-.192-1.914-.475-.001.37-.002.743.033 1.11Zm1.623-5.44c-.23.579-.424 1.199-.438 1.827-.003.136.09.245.18.339.352.375.838.633 1.307.85.12-.562.168-1.147.206-1.713a6.916 6.916 0 0 0-.007-1.221 2.148 2.148 0 0 0-.15-.647.718.718 0 0 0-.465-.417 1.496 1.496 0 0 0-.15-.038 2.22 2.22 0 0 0-.06.099 7.429 7.429 0 0 0-.423.92ZM329.396 577.1a1.08 1.08 0 0 1-.05-.868c.262-.706.72-1.352 1.429-1.662.967-.421 2.048-.076 2.753.662l.008.008c.749.79 1.099 1.853 1.108 2.93.005.54-.065 1.096-.303 1.587-.333.684-1.015 1.177-1.795 1.136h-.001c-.885-.048-1.576-.747-2.154-1.351-.295-.28-.626-.562-1.01-.708-.16-.06-.34-.096-.501-.022a.79.79 0 0 1-.731-1.4 2.302 2.302 0 0 1 1.247-.312Zm1.839.56a.812.812 0 0 0-.107-.138c-.012-.014-.022-.026-.033-.036-.011-.008-.023-.01-.044-.003a1.547 1.547 0 0 0-.095.036c.095.045.187.093.279.142ZM336.095 542.578c.685-.094 1.377-.144 2.066-.203 1.369-.117 2.739-.223 4.109-.33 2.682-.204 5.364-.407 8.049-.57 2.963-.18 5.944-.13 8.91-.081 1.71.028 3.42.072 5.128.164 1.179.064 2.362.143 3.532.308 1.64.232 3.272.567 4.852 1.068 1.254.399 2.499.868 3.65 1.51.962.537 1.857 1.217 2.549 2.08.85 1.06 1.095 2.447 1.045 3.774l-.001.005c-.038 1.02-.11 2.07-.397 3.056l-.014.046a10.039 10.039 0 0 1-1.008 2.245 14.787 14.787 0 0 1-1.602 2.195c-.001 0-.002 0-.002.002a14.932 14.932 0 0 1-2.172 2.018c-1.148.878-2.473 1.53-3.774 2.147-1.454.688-2.962 1.3-4.53 1.676a26.768 26.768 0 0 1-3.988.636c-1.983.165-3.983.146-5.97.126h-.005c-3.778-.027-7.557-.207-11.315-.598a1.12 1.12 0 0 1 .069-2.231c3.748-.155 7.498-.231 11.249-.25l.023-.001c1.88-.015 3.777-.027 5.65-.223l.033-.003a23.29 23.29 0 0 0 3.493-.64c1.335-.354 2.619-.9 3.864-1.494l.006-.003c1.085-.52 2.21-1.056 3.169-1.79a11.713 11.713 0 0 0 1.695-1.568c.463-.528.886-1.092 1.244-1.696a7.785 7.785 0 0 0 .73-1.564c.228-.704.257-1.487.287-2.22.02-.507.017-1.167-.324-1.585l-.01-.011c-.432-.526-1.002-.928-1.593-1.257l-.003-.001c-.94-.523-1.977-.868-3.01-1.156-1.417-.396-2.873-.645-4.334-.811l-.047-.006c-1.06-.118-2.13-.161-3.194-.195-1.665-.052-3.331-.06-4.997-.053h-.038c-2.863.012-5.738.02-8.595.225h-.021c-2.66.192-5.315.41-7.971.632h-.012c-.925.078-1.85.162-2.776.24a.96.96 0 0 1-.988 1.347c-.755-.09-1.512-.2-2.251-.38-.595-.143-1.202-.334-1.708-.688a2.265 2.265 0 0 1-.706-.732 2.014 2.014 0 0 1 .107-2.186c.436-.602 1.135-.877 1.847-.974ZM252.03 599.566c.192-.65.487-1.266.805-1.861.41-.772.873-1.516 1.352-2.247.812-1.241 1.634-2.493 2.582-3.636.922-1.111 1.88-2.191 2.838-3.271a102.693 102.693 0 0 1 8.513-8.502 110.235 110.235 0 0 1 4.753-3.983c2.13-1.687 4.34-3.27 6.563-4.83 1.879-1.318 3.755-2.641 5.652-3.933.665-.452 1.424-.79 2.229-.873.739-.077 1.499.076 2.12.492a1.112 1.112 0 0 1-.538 2.034c-.74.053-1.42.498-2.002.92a.946.946 0 0 1-.04.028c-1.843 1.337-3.705 2.65-5.564 3.966a.018.018 0 0 1-.005.004c-2.174 1.539-4.34 3.094-6.443 4.729a88.596 88.596 0 0 0-4.604 3.829l-.003.002a89.054 89.054 0 0 0-4.242 4.048l-.011.012a81.162 81.162 0 0 0-3.872 4.233l-.022.026c-.903 1.06-1.807 2.123-2.67 3.216-.01.01-.017.02-.026.032-.827 1.052-1.53 2.209-2.23 3.347l-.026.043c-.39.637-.768 1.286-1.098 1.957-.186.378-.374.772-.477 1.183-.19.754-.133 1.566-.03 2.328l.007.047c.044.319.1.642.207.946a.95.95 0 0 0 .03.084c.29.19.619.325.943.44.607.218 1.245.345 1.882.434.478.067.964.074 1.445.076.8.003 1.602-.031 2.4-.077h.007c1.58-.09 3.17-.262 4.71-.64 1.224-.3 2.437-.646 3.619-1.081 1.757-.645 3.462-1.44 5.162-2.22 1.82-.835 3.644-1.68 5.4-2.642 1.646-.901 3.167-2.042 4.65-3.183 2.205-1.697 4.278-3.562 6.279-5.494 1.543-1.492 3.06-3.012 4.504-4.6 1.022-1.125 2.02-2.283 2.894-3.528a1.095 1.095 0 0 1 1.941.951c-.508 1.645-1.422 3.15-2.428 4.536-1.337 1.842-2.896 3.518-4.528 5.1l-.003.004c-2.078 2.02-4.22 3.98-6.477 5.8a.698.698 0 0 1-.032.025c-1.588 1.28-3.214 2.546-4.97 3.59h-.002c-1.814 1.08-3.737 1.985-5.653 2.868h-.003c-1.778.82-3.56 1.649-5.387 2.359l-.033.012a32.723 32.723 0 0 1-4.015 1.237c-1.774.435-3.6.638-5.421.737-1.511.082-3.065.172-4.571-.023l-.02-.002c-.9-.118-1.794-.304-2.65-.61-.756-.271-1.49-.63-2.12-1.134-1.052-.842-1.358-2.28-1.5-3.551-.137-1.248-.13-2.541.229-3.754Z"/><path d="M65.905 554.562c.024-2.038.104-4.083.368-6.105.272-2.082.722-4.14 1.212-6.18a61.46 61.46 0 0 1 2.247-7.303c.704-1.87 1.441-3.756 2.424-5.5.881-1.563 2.017-2.98 3.202-4.32 1.106-1.252 2.311-2.54 3.771-3.384 1.324-.766 2.72-1.41 4.114-2.034 1.422-.637 2.88-1.254 4.394-1.636 1.458-.367 2.951-.596 4.44-.803l.016-.002c1.91-.264 3.84-.377 5.768-.356h.017c1.867.02 3.736.16 5.58.469l.021.004c.85.142 1.71.285 2.552.485.138-1.39.412-2.766.745-4.12a30.652 30.652 0 0 1 1.735-5.107 41.714 41.714 0 0 1 2.553-4.843 30.782 30.782 0 0 1 3.46-4.62c1.228-1.355 2.58-2.605 4.065-3.674 1.126-.809 2.277-1.596 3.494-2.263 1.347-.738 2.786-1.315 4.216-1.87 1.533-.598 3.1-1.152 4.711-1.5 1.732-.375 3.53-.452 5.295-.484 2.252-.04 4.505-.02 6.756.046 1.984.06 3.972.153 5.944.38 2.142.246 4.267.643 6.381 1.056 2.021.396 4.042.794 6.046 1.268l.03.007c1.84.437 3.655.981 5.461 1.541l.008.002c1.681.521 3.384 1.043 4.997 1.754l.027.012c1.288.57 2.536 1.23 3.767 1.912l.03.016a15.11 15.11 0 0 1 3.208 2.373c.368-.692.778-1.362 1.202-2.02a23.904 23.904 0 0 1 2.513-3.237c.756-.822 1.542-1.636 2.423-2.326.944-.738 1.935-1.417 2.923-2.095a27.12 27.12 0 0 1 4.561-2.495c1.36-.59 2.766-1.137 4.223-1.432a15.702 15.702 0 0 1 3.44-.312c1.61.035 3.218.17 4.822.301 2.195.182 4.376.52 6.524 1.005 1.717.387 3.441.803 5.102 1.392 1.65.586 3.275 1.242 4.895 1.906a75.465 75.465 0 0 1 6.124 2.84 84.815 84.815 0 0 1 5.545 3.127c1.232.762 2.48 1.527 3.623 2.422v.001c.353.276.693.565 1.024.865.8-.866 1.676-1.66 2.62-2.365a15.197 15.197 0 0 1 4.19-2.19c1.27-.433 2.615-.79 3.966-.767 1.35.024 2.7.091 4.05.158 1.392.07 2.789.147 4.17.336 1.078.148 2.14.402 3.18.725 1.155.36 2.279.814 3.37 1.333 1.525.726 3.014 1.525 4.496 2.331a133.45 133.45 0 0 1 5.569 3.201 76.543 76.543 0 0 1 5.06 3.336c1.16.836 2.323 1.68 3.414 2.604l.03.025c.987.84 1.905 1.764 2.806 2.696l.014.014c.988 1.021 1.949 2.072 2.832 3.186l.024.031c.758.96 1.46 1.963 2.1 3.004.728 1.179 1.277 2.462 1.68 3.785.354 1.159.65 2.374.642 3.593v.002c-.008 1.243-.172 2.486-.344 3.714-.155 1.106-.3 2.227-.568 3.312a1.848 1.848 0 0 0-.017.12.891.891 0 0 1-.066 1.64c-.548.207-1.154.156-1.622-.214-.471-.371-.703-.954-.816-1.527-.13-.513-.156-1.051-.158-1.578-.002-.712.05-1.423.123-2.131.114-1.116.228-2.24.237-3.362.007-.88-.252-1.771-.516-2.601l-.006-.018c-.336-1.052-.776-2.075-1.356-3.016a36.127 36.127 0 0 0-1.895-2.776c-.792-1.052-1.67-2.038-2.573-2.995-.832-.882-1.676-1.762-2.582-2.57-.997-.889-2.091-1.675-3.173-2.455a74.575 74.575 0 0 0-4.86-3.2c-1.785-1.085-3.6-2.12-5.442-3.107l-.01-.004c-1.436-.769-2.878-1.534-4.353-2.229l-.006-.003a22.699 22.699 0 0 0-2.96-1.16l-.001-.002a16.394 16.394 0 0 0-2.672-.603h-.006c-1.29-.173-2.597-.237-3.897-.298h-.005c-1.306-.062-2.615-.124-3.923-.125h-.026c-.97.004-1.946.316-2.85.638l-.02.007a11.41 11.41 0 0 0-3.252 1.79 17.13 17.13 0 0 0-2.23 2.12c.77.93 1.409 1.966 1.846 3.094.632 1.628.774 3.414.717 5.146l-.001.025c-.026.774-.06 1.548-.126 2.32-.046.536-.1 1.077-.23 1.6l-.014.057c-.201.798-.505 1.57-.841 2.32a.391.391 0 0 1-.01.023c-.342.76-.74 1.559-1.363 2.13-.53.483-1.188.805-1.86 1.039a5.643 5.643 0 0 1-2.425.293l-.012-.001c-1.037-.11-1.955-.662-2.667-1.407l-.02-.021c-.564-.604-.839-1.411-.964-2.215-.136-.879-.117-1.778-.052-2.662.127-1.729.373-3.463.872-5.126a34.26 34.26 0 0 1 1.566-4.187c.416-.926.912-1.816 1.481-2.656a18.56 18.56 0 0 0-1.015-.969c-1-.882-2.162-1.6-3.285-2.315a70.17 70.17 0 0 0-5.33-3.05 65.234 65.234 0 0 0-5.916-2.713l-.01-.005c-1.587-.633-3.177-1.26-4.789-1.827h-.004c-1.564-.55-3.189-.937-4.804-1.3a37.35 37.35 0 0 0-6.136-.863l-.036-.003c-1.544-.086-3.092-.174-4.639-.185h-.02a13.04 13.04 0 0 0-2.799.295l-.017.004c-1.23.266-2.405.803-3.527 1.357a23.777 23.777 0 0 0-3.916 2.407c-.895.685-1.795 1.37-2.645 2.11-.709.616-1.335 1.331-1.945 2.043a21.884 21.884 0 0 0-2.06 2.828l-.025.038c-.485.796-.95 1.613-1.315 2.471v.002a6.462 6.462 0 0 0-.317.954c.14.261.261.53.362.806.255.702.47 1.441.49 2.193v.005c.017.66-.19 1.318-.66 1.794-.553.562-1.36.764-2.125.616-.963-.186-1.815-.794-2.13-1.75-.149-.45-.156-.93-.13-1.398.028-.492.091-.982.162-1.47.035-.239.076-.479.122-.717-.123-.163-.25-.323-.377-.48-.87-1.082-1.958-1.97-3.155-2.666-1.143-.666-2.302-1.315-3.504-1.872-1.489-.69-3.082-1.18-4.644-1.674-1.756-.555-3.518-1.099-5.302-1.56-1.945-.503-3.923-.89-5.895-1.275-2.04-.397-4.092-.78-6.158-1.018-1.889-.217-3.794-.299-5.695-.348h-.005a93.634 93.634 0 0 0-6.576.052l-.04.002c-1.553.07-3.139.168-4.656.53a.446.446 0 0 1-.03.006c-1.433.343-2.82.873-4.179 1.431l-.028.012c-1.28.525-2.572 1.065-3.776 1.75-.008.003-.015.008-.023.012-1.08.616-2.099 1.343-3.097 2.084l-.02.015c-1.274.948-2.43 2.048-3.487 3.232l-.009.01a27.194 27.194 0 0 0-3.037 4.128 39.43 39.43 0 0 0-2.314 4.451 26.538 26.538 0 0 0-1.51 4.533c-.325 1.362-.59 2.747-.687 4.145l-.027.389c.315.148.627.3.937.455l.047.024c1.198.6 2.337 1.36 3.243 2.357l.017.019c.738.816 1.397 1.792 1.53 2.909l.005.049a6.863 6.863 0 0 1-.102 2.237c-.166.75-.485 1.494-1.12 1.964-.762.563-1.76.544-2.653.398a5.695 5.695 0 0 1-2.568-1.098 8.932 8.932 0 0 1-1.689-1.725c-.457-.613-.855-1.288-1.063-2.03 0-.004-.002-.01-.004-.013-.236-.85-.24-1.766-.232-2.642v-.002c.004-.406.013-.812.027-1.217-.933-.308-1.927-.477-2.884-.654a32.662 32.662 0 0 0-5.155-.505 36.46 36.46 0 0 0-5.388.266c-1.385.175-2.78.37-4.133.723-.004 0-.007.002-.01.003-1.362.356-2.673.923-3.953 1.497-1.287.576-2.586 1.176-3.773 1.943a.022.022 0 0 0-.005.003c-.472.305-.896.683-1.3 1.07a24.954 24.954 0 0 0-1.72 1.857l-.019.02c-1.02 1.205-2.01 2.467-2.773 3.855l-.008.014c-.886 1.616-1.535 3.37-2.162 5.098l-.006.018a52.53 52.53 0 0 0-1.998 6.976c-.412 1.934-.793 3.88-1.025 5.846l-.003.019c-.222 1.892-.279 3.804-.289 5.707v.01c-.01 1.865-.002 3.733.104 5.595l.001.024a23.82 23.82 0 0 0 .496 3.762l.001.003c.331 1.496.905 2.94 1.505 4.345.005.01.01.02.014.032.562 1.318 1.143 2.66 1.918 3.87.704 1.1 1.63 2.064 2.548 2.983l.01.009c1.108 1.108 2.335 2.103 3.677 2.915 1.24.75 2.566 1.356 3.951 1.78a20.028 20.028 0 0 1 1.59-1.732c1.152-1.114 2.387-2.147 3.722-3.037.954-.636 1.98-1.308 3.097-1.615l.018-.005c.511-.137 1.045-.182 1.571-.203.7-.028 1.4-.007 2.1.03l.013.002c.708.039 1.42.104 2.116.249.58.12 1.166.3 1.658.64l.006.005c1.006.698 1.38 1.898 1.278 3.079v.009c-.107 1.224-.69 2.344-1.476 3.269a.2.2 0 0 1-.019.022c-.586.69-1.217 1.392-1.983 1.887l-.003.002c-.396.256-.835.442-1.274.609-.57.217-1.154.399-1.74.57l-.048.013c-1.827.523-3.784.557-5.668.473l-.019-.001c-1.312-.06-2.63-.177-3.927-.405a5.974 5.974 0 0 0-.099.174 20.428 20.428 0 0 0-1.817 4.423c-.373 1.319-.728 2.656-.923 4.015l-.007.05a20.233 20.233 0 0 0-.153 1.906 67.038 67.038 0 0 0-.056 3.008v.029a38.075 38.075 0 0 0 .646 6.868c.335 1.817.708 3.658 1.35 5.396a.049.049 0 0 0 .003.01c.651 1.766 1.592 3.432 2.54 5.053l.014.025c1.136 1.942 2.477 3.769 4.046 5.384l.02.02c1.193 1.227 2.45 2.449 3.883 3.395a28.272 28.272 0 0 0 3.276 1.88c.625.302 1.282.536 1.94.754a47.56 47.56 0 0 0 2.991.868c1.82.472 3.656.93 5.518 1.2 1.34.197 2.684.349 4.033.448 2.012.147 4.034.18 6.05.213a85.067 85.067 0 0 0 8.357-.285 74.596 74.596 0 0 0 8.431-1.17c2.586-.511 5.17-1.04 7.747-1.597 2.05-.443 4.09-.944 6.091-1.573 1.446-.455 2.888-.943 4.28-1.547a21.33 21.33 0 0 0 3.094-1.655c.567-.367 1.2-.737 1.89-.79.672-.05 1.341.258 1.688.85.275.468.293 1.024.137 1.534-.162.534-.17 1.12-.16 1.673a32.746 32.746 0 0 0 .22 3.046c.091.824.212 1.677.515 2.453.354.904.911 1.74 1.447 2.545l.004.005c.571.858 1.168 1.724 1.884 2.47a.63.63 0 0 1 .035.039c.763.784 1.71 1.409 2.614 2.013a.442.442 0 0 1 .035.025c.94.627 1.908 1.267 2.95 1.71l.046.02c.786.333 1.597.605 2.417.838a22.48 22.48 0 0 0 2.652.584h.001c.668.105 1.352.13 2.027.162 1.268.06 2.538.085 3.807.103 1.288.019 2.575.029 3.863.008.74-.012 1.485-.024 2.221-.102 1.528-.162 3.043-.472 4.547-.781 1.632-.334 3.263-.671 4.891-1.025 1.537-.335 3.056-.755 4.568-1.19a54.194 54.194 0 0 0 5.188-1.757 84.62 84.62 0 0 0 4.78-2.08c1.24-.586 2.491-1.173 3.783-1.641.876-.318 1.863-.547 2.785-.295.6.164 1.082.599 1.495 1.044.523.563.978 1.188 1.415 1.818a54.15 54.15 0 0 0 1.274 1.776c.256.34.516.684.806.997.557.602 1.232 1.102 1.894 1.579.685.493 1.407.97 2.192 1.29.85.346 1.825.426 2.73.5h.003a44.04 44.04 0 0 0 3.484.173c.412 0 .825-.1 1.22-.21a14.577 14.577 0 0 0 2.005-.76l.02-.008c1.8-.813 3.474-1.897 5.059-3.07l.007-.004a43.262 43.262 0 0 0 5.097-4.415c1.45-1.474 2.825-3.03 4.059-4.691a41.967 41.967 0 0 0 3.058-4.732c.603-1.092 1.244-2.19 1.723-3.344.38-.915.584-1.916.794-2.88l.003-.015c.312-1.497.53-3.125.109-4.623a1.165 1.165 0 0 1 1.876-1.208c1.883 1.59 2.177 4.268 1.774 6.558l-.003.014c-.208 1.227-.435 2.489-.903 3.648l-.007.017c-.525 1.295-1.231 2.526-1.906 3.746a46.316 46.316 0 0 1-3.34 5.178v.002c-1.341 1.81-2.833 3.506-4.412 5.11a46.099 46.099 0 0 1-5.588 4.818c-1.826 1.338-3.761 2.558-5.84 3.465-1.516.66-3.186 1.278-4.864 1.23-1.279-.036-2.555-.175-3.822-.344-1.289-.172-2.632-.42-3.794-1.034-.956-.505-1.842-1.142-2.69-1.81-.829-.65-1.65-1.35-2.296-2.187-.789-1.024-1.418-2.185-2.05-3.308-.23-.408-.47-.812-.745-1.193a3.529 3.529 0 0 0-.455-.544c-.053.012-.105.03-.152.044a4.05 4.05 0 0 0-.77.358l-3.455 1.974a42.277 42.277 0 0 1-4.993 2.428l-.012.005a61.232 61.232 0 0 1-5.496 1.925l-.022.007c-1.565.47-3.135.929-4.72 1.329-1.649.416-3.315.768-4.98 1.11h-.003c-1.62.335-3.252.665-4.897.853l-.016.002c-.849.096-1.707.117-2.56.133-1.33.024-2.66.014-3.989-.006a119.964 119.964 0 0 1-3.934-.11c-.815-.038-1.636-.078-2.443-.204a26.587 26.587 0 0 1-3.108-.686 20.696 20.696 0 0 1-2.959-1.072c-1.259-.576-2.423-1.364-3.553-2.157-1.129-.792-2.276-1.626-3.206-2.653-.843-.931-1.539-1.996-2.193-3.064-.645-1.053-1.28-2.157-1.645-3.344-.326-1.066-.465-2.188-.556-3.296-.082-1.015-.122-2.04-.05-3.056a23.12 23.12 0 0 1-2.279 1.177c-1.489.666-3.034 1.204-4.586 1.7-.003.002-.005.003-.008.003-2.086.667-4.207 1.223-6.338 1.728l-.032.007a227.194 227.194 0 0 1-7.788 1.687h-.003a88.98 88.98 0 0 1-8.793 1.299l-.028.003a85.762 85.762 0 0 1-8.69.418l-.022-.001c-2.083-.01-4.17-.02-6.25-.156l-.015-.001a54.98 54.98 0 0 1-4.304-.46c-1.996-.291-3.967-.765-5.92-1.261l-.01-.002c-1.902-.483-3.844-.995-5.627-1.83a29.79 29.79 0 0 1-3.758-2.128c-1.683-1.11-3.152-2.543-4.53-4.004-1.764-1.868-3.264-3.972-4.523-6.208-1.027-1.822-2.03-3.691-2.743-5.663-.703-1.943-1.116-3.992-1.473-6.022a39.725 39.725 0 0 1-.61-7.551c.03-1.817.056-3.673.37-5.47.261-1.503.703-2.976 1.175-4.426a24.77 24.77 0 0 1 1.935-4.45 19.894 19.894 0 0 1-3.735-1.765c-1.597-.966-3.054-2.152-4.364-3.48-1.09-1.107-2.164-2.27-3.005-3.583-.894-1.396-1.549-2.95-2.167-4.48-.65-1.61-1.259-3.255-1.63-4.954a25.414 25.414 0 0 1-.538-4.355c-.082-1.932-.076-3.868-.053-5.801Zm22.701 26.166c1.535.085 3.15.115 4.651-.274a22.846 22.846 0 0 0 1.517-.44c.24-.08.491-.16.713-.284.17-.095.321-.23.464-.36.288-.262.555-.548.812-.84.39-.443.742-.968.833-1.562.02-.127.041-.275.005-.401-.106-.082-.375-.144-.525-.18-.546-.132-1.112-.185-1.67-.221a19.726 19.726 0 0 0-1.837-.048c-.32.009-.656.019-.968.1-.292.076-.57.22-.836.362a15.91 15.91 0 0 0-1.426.879l-.009.006c-1.17.794-2.233 1.74-3.207 2.764-.11.115-.218.232-.325.35.602.069 1.206.115 1.808.149ZM109.36 522.5c.003.243.011.487.03.729.012.179.025.365.072.539.085.31.293.597.485.85a5.592 5.592 0 0 0 1.03 1.049 2.56 2.56 0 0 0 1.047.466l.031.007a3.73 3.73 0 0 0 .023-.902c-.01-.128-.076-.255-.135-.366a4.235 4.235 0 0 0-.575-.795c-.565-.641-1.269-1.15-2.008-1.577Zm128.486-16.562c-.004.011-.01.021-.013.032a32.8 32.8 0 0 0-1.339 3.763l-.005.02c-.405 1.417-.589 2.894-.684 4.362v.016a10.08 10.08 0 0 0 0 1.583c.015.158.036.315.072.469a.637.637 0 0 0 .094.228c.103.106.233.222.37.237.344.038.694.002 1.029-.088.208-.056.457-.118.639-.25.269-.266.432-.667.588-1.002.277-.595.538-1.203.718-1.835.098-.345.13-.714.169-1.069.076-.719.119-1.443.154-2.165.064-1.326.022-2.71-.4-3.98a7.692 7.692 0 0 0-.76-1.613c-.232.42-.444.851-.632 1.292Z"/><path d="M89.126 622.95a1.297 1.297 0 0 1-2.406-.957c.082-.241.165-.482.243-.724.015-.115.044-.228.087-.336.098-.247.205-.473.404-.664a1.385 1.385 0 0 1 2.335.82c.037.277-.02.537-.104.797a1.41 1.41 0 0 1-.303.516l-.002-.002c-.086.183-.17.366-.254.55ZM280.36 601.284l.917-.076.005-.001c.43-.034.854.103 1.244.276.444.195.866.44 1.279.694 1.229.756 2.398 1.61 3.555 2.47l.026.02c1.16.864 2.325 1.723 3.505 2.559.645.456 1.29.922 1.97 1.325.87.515 1.677 1.134 2.45 1.78.99.825 1.93 1.708 2.846 2.614a1.026 1.026 0 0 1-1.2 1.635c-1.945-1.028-3.89-2.063-5.782-3.185-.764-.453-1.484-.984-2.2-1.51a159.81 159.81 0 0 1-3.55-2.692 181.33 181.33 0 0 0-3.166-2.42.882.882 0 0 1-1.158-.082 44.395 44.395 0 0 1-1.11-1.144c-.352-.381-.721-.78-.63-1.35a1.081 1.081 0 0 1 .365-.651 1.11 1.11 0 0 1 .635-.262ZM297.085 524.067l.002-.002c1.025-.844 2.125-1.667 3.359-2.18 1.24-.516 2.609-.712 3.937-.84 1.247-.118 2.504-.22 3.757-.188a23.63 23.63 0 0 1 3.049.288c1.362.21 2.69.62 3.988 1.082 1.195.425 2.429.885 3.488 1.598.899.605 1.703 1.35 2.465 2.117.857.863 1.626 1.846 2.106 2.972a6.102 6.102 0 0 1 .435 3.255l-.004.027c-.05.37-.14.742-.314 1.075-.262.5-.728.886-1.3.952-.834.097-1.45-.497-1.894-1.123a1.006 1.006 0 0 1 .74-1.586 4.266 4.266 0 0 0-.405-1.346c-.37-.755-.951-1.4-1.56-1.972a1.328 1.328 0 0 1-.037-.036c-.627-.59-1.281-1.17-2.007-1.634l-.03-.02c-.838-.53-1.83-.854-2.762-1.17l-.023-.008c-1.1-.371-2.225-.71-3.376-.872l-.024-.003a20.111 20.111 0 0 0-2.594-.208h-.025c-1.116-.01-2.234.09-3.342.2h-.005c-.982.098-2.025.215-2.943.6h-.004c-.911.384-1.72 1.043-2.47 1.673l-.013.01c-.88.74-1.595 1.674-2.243 2.616-1.005 1.462-1.86 3.026-2.654 4.61a1.13 1.13 0 0 1-2.096-.811c.523-1.856 1.156-3.7 2.039-5.418.699-1.358 1.572-2.678 2.76-3.658ZM92.73 682.176l.05-.167c.182-.61.342-1.226.498-1.843a73.82 73.82 0 0 0 1.041-4.816c.493-2.693.806-5.423 1.13-8.141.37-3.104.677-6.227.744-9.355.082-3.777.106-7.555.128-11.333.02-3.27.053-6.543.02-9.813-.007-.72-.013-1.44-.03-2.16-.03-.57-.064-1.143-.069-1.715l-.05-1.006a2.794 2.794 0 0 1 .37-1.585 2.72 2.72 0 0 1 2.404-1.334c1.2.028 2.214.852 2.562 1.955.035.112.064.228.085.346l.252 1.415c.228 1.277.31 2.583.387 3.877.2 3.32.227 6.655.29 9.98l.001.077c.071 3.806.136 7.615.07 11.42v.014c-.057 3.287-.249 6.57-.48 9.849v.01c-.205 2.907-.403 5.838-.886 8.714l-.009.05a94.34 94.34 0 0 1-1.025 5.215c-.165.725-.337 1.45-.537 2.166-.156.563-.326 1.126-.568 1.658v.003c-.642 1.406-1.833 2.542-3.39 2.817l-.054.009c-1.709.278-3.44-.683-4.049-2.328a3.546 3.546 0 0 1-.206-1.525c.083-.97.576-1.86 1.32-2.454ZM228.434 682.437c.305-2.054.602-4.11.873-6.17.327-2.482.56-4.977.79-7.47.25-2.701.483-5.406.633-8.115.148-2.677.524-5.34.986-7.978l.803-4.596c.017-.096.036-.191.06-.283a1.677 1.677 0 0 1 .45-.825 1.675 1.675 0 0 1 2.708.499c.044.1.078.204.104.31.025.098.045.198.063.299l.803 4.596c.466 2.66.829 5.35.92 8.052.096 2.862-.018 5.732-.18 8.589-.148 2.622-.302 5.25-.608 7.86l-.006.053a438.772 438.772 0 0 1-.798 6.309c-.092.68-.217 1.358-.426 2.012-.406 1.272-1.19 2.409-2.466 2.934a3.495 3.495 0 0 1-4.031-1.013c-1.17-1.425-.929-3.374-.678-5.063Z"/><path d="M312.836 196.943c-3.61-4.956-4.533-5.164-4.533-5.164l-4.01 3.113 2.966 5.341-1.087 5.572-5.024 6.345-6.109 2.053-6.196-1.471-5.48 3.147-6.682 1.489-4.134-2.137-9.979 3.142-6.195-.506-3.829-1.618-2.077-2.664-8.459 4.813-3.851.17-4.339-1.316-1.192-3.8-8.329 3.261-8.837 1.118-3.189-1.843-.068-6.104 3.121-5.025-4.244.03-3.973-2.968-1.008-9.136c-7.178 1.124-8.471 1.039-14.648 5.619-3.543 2.627-11.496 11.249-13.671 14.879-3.494 5.831-8.571 11.051-3.693 18.315a11.438 11.438 0 0 0 2.618 2.732 14.068 14.068 0 0 0 5.016 2.395c10.055 2.543 19.052 1.131 29.132 1.634 2.797.139 10.527 1.958 13.283 2.396 3.773.6 9.795-.45 13.611-.306 6.215.236 3.491-1.164 9.689-1.682 4.041-.337 11.757-.79 15.833-.904 12.525-.35 21.858-2.408 34.369-2.993 5.194-.243 14.449-7.887 17.847-14.773 2.784-5.643.632-18.65-2.649-23.154Z" style="fill:#f1f1f1" transform="translate(-111.529 -51.392) scale(1.47888)"/><path d="M306.037 220.186c3.575-5.341.041-9.938.041-9.938l-4.605 3.998-5.242 2.177-5.47-1.835-5.87 3.371-6.682 1.489-4.978-2.232-3.443 2.736-7.568.666-5.814-.903-4.411-4.05-7.512 4.772-5.471.241-3.667-1.346-.815-3.947-11.221 4.394-5.786.442-4.288-2.479.495-5.778 3.31-5.328-6.359-.494-2.413-2.523c-6.303 1.932-7.619 4.497-8.757 11.69-.287 1.82.899 6.044 1.97 7.015 1.388 1.257 6.713 5.943 9.174 6.087 5.734.335 19 2.461 24.629 1.647 8.014-1.159 18.722-.476 26.802-.686 6.393-.166 19.312-.739 24.531-.719 7.001.028 15.476-2.572 19.42-8.467Z" style="fill:#e3e3e3" transform="translate(-113.788 -54.469) scale(1.47888)"/><path d="M240.852 198.228c.04-1.163.09-2.328.177-3.49.055-.735.113-1.478.255-2.203.242-1.227.585-2.434.94-3.631.345-1.163.699-2.33 1.148-3.457.428-1.075.916-2.127 1.409-3.174a39.24 39.24 0 0 1 2.042-3.796c.806-1.314 1.737-2.55 2.732-3.727.85-1.005 1.738-2.02 2.78-2.831a52.422 52.422 0 0 1 2.396-1.743 19.379 19.379 0 0 1 3.063-1.712c1.063-.476 2.223-.774 3.394-.715a1.012 1.012 0 0 1 0 2.023c-.832.042-1.627.357-2.344.764a28.562 28.562 0 0 0-2.655 1.703l-.025.018a17.44 17.44 0 0 0-2.038 1.7c-.832.823-1.571 1.745-2.3 2.659l-.026.033c-.855 1.075-1.656 2.2-2.341 3.393l-.022.039a49.613 49.613 0 0 0-1.831 3.524c-.465.988-.927 1.98-1.33 2.996v.002c-.41 1.033-.718 2.11-1.02 3.178l-.005.02c-.31 1.097-.61 2.202-.81 3.324l-.005.03c-.102.59-.13 1.196-.162 1.792a87.782 87.782 0 0 0-.102 3.365v.034c-.028 2.005.074 4.12.788 6.017l.008.02c.468 1.243.973 2.5 1.67 3.635l.012.02c.32.519.71.998 1.102 1.465a43.207 43.207 0 0 0 1.99 2.18l.023.023c1.62 1.672 3.46 3.122 5.422 4.375 1.627 1.04 3.283 2.083 5.04 2.893 1.7.784 3.539 1.289 5.345 1.763h.004c2.367.622 4.798.987 7.24 1.116 1.965.103 3.939.2 5.906.134a21.124 21.124 0 0 0 3.709-.438 51.438 51.438 0 0 0 3.416-.846c1.567-.45 3.086-1.09 4.587-1.721a34.407 34.407 0 0 0 5.676-3.034c1.372-.91 2.762-1.837 3.996-2.932a17.363 17.363 0 0 0 2.18-2.3c.9-1.151 1.605-2.465 2.286-3.754l.013-.025c.699-1.323 1.391-2.672 1.892-4.084.348-.981.651-1.978.889-2.992l.001-.005c.218-.931.396-1.871.526-2.82l.007-.047c.173-1.288.249-2.591.318-3.888l.003-.04c.086-1.636.122-3.274.099-4.912l-.001-.018a19.742 19.742 0 0 0-.107-1.93c-.042-.37-.092-.746-.207-1.1l-.004-.01c-.332-1.016-.826-1.986-1.307-2.936-.725-1.433-1.571-2.803-2.48-4.126-.695-1.01-1.383-2.045-2.177-2.98-.655-.77-1.4-1.467-2.138-2.154a31.52 31.52 0 0 0-2.915-2.421c-.817-.594-1.662-1.156-2.558-1.622l-.024-.012c-.576-.283-1.217-.431-1.846-.535-1.022-.17-2.063-.216-3.097-.216a1.043 1.043 0 0 1-.32-2.034c1.153-.373 2.346-.664 3.558-.75 1.054-.075 2.142.012 3.128.416l.024.01c1.151.46 2.224 1.105 3.233 1.82l.019.013a34.876 34.876 0 0 1 3.268 2.646l.016.015c.852.774 1.704 1.566 2.451 2.444.874 1.028 1.643 2.149 2.416 3.253l.009.012c.997 1.427 1.92 2.908 2.711 4.459.203.333.358.713.524 1.06.151.315.298.632.438.952.224.509.436 1.025.605 1.555.423 1.324.457 2.776.463 4.154a65.374 65.374 0 0 1-.192 5.219c-.107 1.41-.227 2.828-.457 4.225a30.4 30.4 0 0 1-.696 3.144 47.97 47.97 0 0 1-1.036 3.266c-.561 1.582-1.352 3.085-2.16 4.553-.787 1.429-1.599 2.864-2.571 4.177l-.025.033a22.838 22.838 0 0 1-2.453 2.774l-.008.008c-1.315 1.27-2.842 2.326-4.355 3.343l-.009.006a36.64 36.64 0 0 1-6.157 3.326c-.479.257-1.031.43-1.532.632a71.56 71.56 0 0 1-1.378.54c-.703.266-1.411.52-2.132.737l-.019.006a50.73 50.73 0 0 1-3.637.93l-.008.002a26.422 26.422 0 0 1-4.304.558h-.03c-2.069.103-4.151.008-6.218-.101a39.213 39.213 0 0 1-7.98-1.238c-2.01-.532-4.04-1.11-5.934-1.974l-.006-.003c-1.912-.873-3.714-1.994-5.482-3.124-2.215-1.417-4.281-3.078-6.077-5.002a47.121 47.121 0 0 1-2.113-2.397c-.5-.613-.984-1.246-1.39-1.926-.797-1.341-1.381-2.81-1.911-4.272-.843-2.326-.967-4.878-.88-7.328ZM266.534 162.439c-.567-.492-.828-1.245-.573-1.971.265-.751.96-1.24 1.663-1.544a1.043 1.043 0 0 1 .924 1.867c-.271.15-.606.329-.787.592-.062.09-.04.196-.013.297a.75.75 0 0 1-1.214.759ZM274.21 159.665a.943.943 0 0 1-1.431-1.212l.749-1.134a1.106 1.106 0 1 1 1.677 1.421l-.995.925ZM297.65 158.325l.027-.001c1.141-.055 2.278-.21 3.405-.393a23.676 23.676 0 0 0 3.852-.965c.979-.333 1.972-.683 2.887-1.17.979-.521 1.898-1.16 2.805-1.795a21.768 21.768 0 0 0 3.064-2.572c.797-.814 1.546-1.684 2.177-2.633.408-.613.803-1.278.992-1.996a4.682 4.682 0 0 0 .096-1.757 4.116 4.116 0 0 0-.161-.793c-.027-.082-.056-.182-.11-.251-.184-.238-.452-.406-.717-.54-.487-.245-1.018-.394-1.55-.498-1.042-.204-2.141-.185-3.197-.177h-.02c-1.904.014-3.806.115-5.705.24l-.026.002c-.953.063-1.906.145-2.854.27-.607.082-1.218.177-1.812.333-.262.09-.543.15-.807.23-.246.074-.49.153-.733.236-.416.143-.827.299-1.229.476-.732.32-1.446.683-2.13 1.097a7.857 7.857 0 0 0-1.534 1.195c-.091.093-.204.205-.29.33a1.013 1.013 0 0 1 .149 1.775c-.475.31-1.049.452-1.598.253-.563-.205-.944-.697-1.188-1.226-.552-1.065-.274-2.308.398-3.253a8.41 8.41 0 0 1 2.147-2.069h.003a20.67 20.67 0 0 1 2.498-1.435l.005-.002c1.041-.508 2.143-.885 3.26-1.188 1.788-.485 3.683-.604 5.524-.699 1.977-.102 3.956-.179 5.936-.172 1.287.005 2.601.02 3.871.253l.019.003c.858.16 1.705.412 2.487.806.743.376 1.426.883 1.942 1.542l.006.008c.593.763.895 1.718 1.088 2.652a8.471 8.471 0 0 1 .07 3.205c-.213 1.2-.75 2.325-1.387 3.356-.733 1.188-1.6 2.29-2.536 3.327a23.642 23.642 0 0 1-3.608 3.22l-.034.026c-1.038.757-2.097 1.506-3.23 2.115l-.007.004c-1.116.599-2.311 1.05-3.503 1.472a26.625 26.625 0 0 1-4.593 1.179c-1.351.22-2.725.367-4.095.322l-.028-.001c-1.214-.032-2.39-.447-3.458-1.006-1.221-.64-2.334-1.472-3.377-2.37a1.364 1.364 0 0 1 1.38-2.306c1.089.42 2.199.804 3.338 1.07.681.159 1.388.29 2.091.27ZM218.198 176.776c.152-1.381.482-2.748 1.05-4.02.57-1.272 1.335-2.451 2.184-3.554a34.418 34.418 0 0 1 2.908-3.315c1.16-1.163 2.414-2.231 3.708-3.241a85.583 85.583 0 0 1 4.304-3.15 66.764 66.764 0 0 1 4.145-2.64c2.24-1.306 4.557-2.485 6.859-3.678 1.524-.79 3.114-1.487 4.778-1.924 1.286-.338 2.652-.533 3.976-.322a1.125 1.125 0 0 1 0 2.22c-1.04.165-2.047.527-3.015.934-1.417.594-2.78 1.316-4.111 2.079-2.212 1.266-4.431 2.525-6.612 3.847-.01.006-.018.01-.027.017a69.042 69.042 0 0 0-3.861 2.54 80.069 80.069 0 0 0-4.075 3.06c-.006.007-.013.012-.02.017-1.147.92-2.258 1.894-3.28 2.954l-.023.025a26.27 26.27 0 0 0-2.447 2.952c-.618.868-1.18 1.79-1.57 2.785-.355.904-.543 1.866-.626 2.83l-.004.053c-.042.482-.08.964-.103 1.447-.01.204-.023.412-.016.617 0 .008.002.014.003.02l.01.025c.067.14.156.27.246.395.25.347.64.583 1.019.766a.332.332 0 0 0 .027.013c.384.186.816.39 1.246.42.29.02.583.003.872-.014a29.78 29.78 0 0 0 1.634-.152c1.367-.158 2.69-.624 3.944-1.177a71.832 71.832 0 0 0 4.74-2.298l.017-.01a114.182 114.182 0 0 1 7.563-3.742 1.262 1.262 0 0 1 1.382 2.07c-2.114 1.983-4.427 3.758-6.92 5.238l-.016.01a48.592 48.592 0 0 1-5.037 2.655c-1.632.74-3.354 1.339-5.138 1.575-.012 0-.023.003-.035.004-1.091.145-2.217.297-3.32.218-1.013-.072-1.987-.438-2.89-.891-1.014-.508-1.943-1.21-2.612-2.134-.572-.79-1.025-1.706-1.057-2.698-.031-.94.097-1.893.2-2.826ZM191.102 240.14c.026-1.621.15-3.257.514-4.841a29.35 29.35 0 0 1 1.136-3.773c.396-1.051.848-2.098 1.464-3.041.59-.903 1.252-1.758 1.924-2.6a45.095 45.095 0 0 1 2.695-3.065 33.497 33.497 0 0 1 1.84-1.774c-.676-.82-1.214-1.748-1.66-2.711a12.627 12.627 0 0 1-1.053-3.681c-.197-1.541-.154-3.111-.066-4.657.093-1.622.273-3.266.75-4.825a20.033 20.033 0 0 1 1.596-3.734 32.13 32.13 0 0 1 2.202-3.47c.96-1.316 2.104-2.494 3.308-3.59 1.058-.961 2.148-1.916 3.349-2.698 1.07-.696 2.23-1.25 3.403-1.747 1.1-.467 2.226-.91 3.393-1.178 1.06-.244 2.157-.313 3.242-.298 1.085.015 2.175.11 3.235.35.898.206 1.829.525 2.518 1.16v.002c.905.837.914 2.13.686 3.253l-.008.045c-.162.91-.421 1.804-.705 2.684a56.91 56.91 0 0 1-1.32 3.606 1.06 1.06 0 0 1-1.988-.732c.39-1.152.75-2.318 1.023-3.504.174-.757.327-1.533.35-2.311v-.046a2.421 2.421 0 0 0-.066-.6c-.07-.027-.142-.047-.211-.066a5.628 5.628 0 0 0-.854-.157c-.862-.102-1.735-.106-2.601-.066-.804.037-1.616.119-2.396.326-.931.248-1.822.665-2.686 1.084-.953.46-1.9.956-2.775 1.555l-.038.025c-.986.679-1.871 1.514-2.734 2.338l-.037.035c-.965.924-1.891 1.907-2.668 2.997-.004.006-.01.012-.013.019a28.497 28.497 0 0 0-1.874 3.012l-.007.013a14.517 14.517 0 0 0-1.201 2.91c-.004.015-.01.029-.013.043-.341 1.222-.437 2.517-.49 3.779l-.001.035c-.051 1.264-.081 2.555.099 3.81l.005.035c.12.819.356 1.62.703 2.372.298.646.649 1.282 1.109 1.829.317-.22.638-.432.963-.64.954-.606 1.95-1.154 3-1.575a9.486 9.486 0 0 1 3.367-.666h.017c.976-.017 2.043.02 2.91.517.003 0 .004.002.005.003a2.77 2.77 0 0 1 1.244 1.544c.179.546.196 1.13.113 1.697l-.01.059c-.126.824-.39 1.635-.852 2.334a8.062 8.062 0 0 1-1.375 1.569h-.001l-.06.052a6.186 6.186 0 0 1-2.095 1.186h-.002a7.774 7.774 0 0 1-2.293.396h-.008c-.924.019-1.85-.115-2.757-.273a.143.143 0 0 0-.022-.004c-.98-.173-1.946-.48-2.81-.975a28.151 28.151 0 0 0-1.955 1.892l-.015.015a33.476 33.476 0 0 0-2.37 2.813c-.572.762-1.138 1.534-1.635 2.348-.435.71-.73 1.51-.994 2.297a23.232 23.232 0 0 0-.84 3.262c-.241 1.324-.296 2.68-.291 4.023v.042c.005 1.13.013 2.307.265 3.415.004.017.008.033.01.05.175.744.449 1.463.793 2.146.296.588.655 1.158 1.125 1.623.51.505 1.228.814 1.884 1.074l.02.009c.797.315 1.632.593 2.487.684 1.053.11 2.118.116 3.175.102a9.021 9.021 0 0 0 2.58-.415 18.062 18.062 0 0 1 1.943-1.523c.838-.56 1.85-.945 2.854-.6.866.299 1.488 1.084 1.507 2.012.014.699-.311 1.336-.774 1.84-.385.42-.865.745-1.354 1.032-.58.339-1.185.63-1.796.906-.81.364-1.654.646-2.518.84l-.371.428c-.827.955-1.644 1.956-2.26 3.066a20.351 20.351 0 0 0-1.213 2.585l-.002.004a11.372 11.372 0 0 0-.638 2.363c-.143.943-.166 1.903-.147 2.855v.002c.009.437.033.876.105 1.308.034.205.074.423.163.613.186.398.49.733.818 1.022l.004.003c.367.323.795.57 1.263.718l.018.006c.395.122.828.155 1.236.196.874.088 1.752.126 2.63.152h.036c1.859.053 3.732-.12 5.528-.615a321.619 321.619 0 0 1 11.708-3.803c1.677-.547 3.358-1.11 5.065-1.56.988-.261 2.082-.127 2.819.637.64.663.81 1.593.76 2.482a9.79 9.79 0 0 0-.005 1.247c.016.225.037.457.104.674.1.32.322.59.564.817.16.15.368.256.566.35.402.19.829.33 1.257.45l.005.002c.93.262 1.893.45 2.862.473a26.635 26.635 0 0 0 2.858-.087c.909-.08 1.809-.251 2.69-.484 1.336-.352 2.632-.861 3.908-1.383 1.424-.582 2.828-1.227 4.158-2.005.883-.516 1.773-1.053 2.562-1.707l.014-.012c.84-.713 1.62-1.495 2.309-2.355a1.324 1.324 0 0 1 2.338.611c.309 1.856-.414 3.737-1.791 4.998l-.014.012c-.957.884-2.072 1.596-3.191 2.254-.002 0-.003.002-.005.003-1.506.884-3.096 1.623-4.712 2.283-1.472.602-2.976 1.173-4.528 1.533a21.33 21.33 0 0 1-3.473.52c-1.108.069-2.22.058-3.327-.025-1.322-.1-2.62-.424-3.865-.872-1.205-.433-2.445-1.025-3.287-2.022-.608-.72-1.066-1.57-1.252-2.5a12.092 12.092 0 0 1-.204-1.901c-1.291.488-2.6.933-3.903 1.384l-.034.01a295.282 295.282 0 0 0-6.126 2.187l-.037.013a64.989 64.989 0 0 1-5.693 1.81c-2.22.597-4.531.788-6.822.68a42.31 42.31 0 0 1-2.91-.22c-.688-.08-1.386-.177-2.048-.393a7.28 7.28 0 0 1-2.714-1.61c-.72-.671-1.331-1.47-1.717-2.38-.472-1.112-.502-2.38-.444-3.57.057-1.15.167-2.302.402-3.43.22-1.06.583-2.087 1.047-3.064a23.45 23.45 0 0 1 1.639-2.88c.349-.526.72-1.037 1.107-1.537a20 20 0 0 1-1.896-.104c-1.274-.135-2.512-.525-3.694-1.008-1.201-.491-2.388-1.117-3.325-2.031l-.01-.01c-.815-.8-1.46-1.758-1.973-2.776a13.11 13.11 0 0 1-1.145-3.262c-.293-1.441-.304-2.942-.281-4.407Zm18.036-19.714c.343.01.687-.03 1.018-.123.25-.07.484-.187.685-.352.273-.224.526-.474.738-.756a.955.955 0 0 0 .075-.116h-.094a5.469 5.469 0 0 0-2.034.393l-.014.006c-.558.23-1.097.51-1.62.816.414.067.83.118 1.246.132Z"/><path d="M260.525 264.135c.642.513 1.15 1.187 1.614 1.86.117.17.165.368.15.56.403.326.829.623 1.266.9.685.434 1.41.8 2.158 1.115.625.263 1.256.524 1.906.712.002 0 .003 0 .005.002.289.083.6.107.899.139a34.865 34.865 0 0 0 1.999.144 58.22 58.22 0 0 0 4.199.08h.005a22.867 22.867 0 0 0 3.444-.348c.337-.09.696-.13 1.034-.201.394-.082.785-.17 1.177-.262a80.487 80.487 0 0 0 2.684-.683c1.332-.36 2.686-.701 3.981-1.183a6.028 6.028 0 0 0 1.575-.902c-.034-.347-.023-.7.026-1.048.069-.48.207-.96.495-1.354a1.913 1.913 0 0 1 1.725-.786h.004a1.92 1.92 0 0 1 1.57 1.138c.204.458.242.969.215 1.464v.005a3.693 3.693 0 0 1-.151.85c.208.143.423.276.641.403.59.344 1.215.662 1.879.835.376.098.767.14 1.153.18.681.07 1.366.108 2.05.135h.014a25.32 25.32 0 0 0 2.062.009 8.261 8.261 0 0 0 1.304-.135c1.206-.247 2.377-.733 3.516-1.187l.002-.001c1.378-.55 2.747-1.138 4.052-1.845l.005-.003c.873-.473 1.741-.967 2.551-1.542a12.027 12.027 0 0 0 1.607-1.346c.514-.52 1.185-.874 1.923-.916.708-.04 1.391.21 1.973.6.655.44 1.39.755 2.134 1.01.801.274 1.62.507 2.457.645.995.163 2.017.184 3.023.187h.04c.941 0 1.913-.095 2.797-.44l.03-.012c1.104-.435 2.136-1.06 3.128-1.704a24.267 24.267 0 0 0 3.563-2.836 19.722 19.722 0 0 0 2.837-3.386c.665-1.015 1.302-2.064 1.78-3.182.382-.897.68-1.83.892-2.782.204-.913.366-1.838.455-2.771.101-1.06.101-2.127.075-3.19-.02-.868-.143-1.78-.562-2.555-.316-.584-.709-1.148-1.234-1.563-.42-.333-.894-.607-1.412-.758l-.004-.002-.146-.042-.04-.002-1.252-.067h-.004a2.2 2.2 0 0 1-.199-.021l-.047-.007-.046-.008a1.98 1.98 0 0 1 .055-3.907c.078-.014.157-.023.237-.027l1.255-.068c.642-.034 1.271-.353 1.82-.658l.028-.016c.788-.441 1.537-.96 2.19-1.586.85-.814 1.54-1.8 2.187-2.776.702-1.056 1.366-2.157 1.846-3.334l.002-.004a22.15 22.15 0 0 0 1-3.098c.268-1.1.47-2.214.608-3.337.171-1.398.218-2.811.23-4.218.011-1.291-.009-2.606-.239-3.881a15.244 15.244 0 0 0-.816-2.854 19.433 19.433 0 0 0-1.462-2.93c-.517-.86-1.098-1.687-1.785-2.42-.505-.538-1.019-1.077-1.583-1.554l-.003-.003c-.5-.422-1.076-.76-1.644-1.081a13.094 13.094 0 0 0-2.284-1.025 12.31 12.31 0 0 0-2.362-.532 16.209 16.209 0 0 0-2.724-.102c-.759.033-1.54-.038-2.24-.351-.972-.435-1.669-1.33-1.804-2.391-.087-.69.023-1.391.167-2.064.176-.825.42-1.637.677-2.44.514-1.598.96-3.22 1.296-4.865.311-1.518.503-3.06.578-4.607.055-1.112.098-2.282-.14-3.378a7.625 7.625 0 0 0-.266-.963c-.046-.128-.095-.267-.172-.381l-.01-.015c-.292-.426-.729-.774-1.122-1.1-.592-.491-1.302-.826-2.027-1.07l-.054-.017c-1.14-.371-2.392-.422-3.58-.432-1.205-.01-2.476.057-3.617.482a28.632 28.632 0 0 0-2.972 1.293c-.67.34-1.35.684-1.978 1.1l-.025.016c-.443.299-.826.693-1.189 1.082l-.033.035c-.939 1.009-1.683 2.197-2.36 3.39a1.508 1.508 0 0 1-2.817-.676c-.094-2.103.357-4.36 1.864-5.921l.006-.006c.626-.644 1.296-1.26 2.054-1.748.772-.497 1.593-.922 2.412-1.338a27.684 27.684 0 0 1 3.514-1.477c1.677-.577 3.49-.683 5.248-.611 1.66.068 3.36.247 4.928.819 1.191.434 2.331 1.032 3.31 1.843.712.592 1.417 1.236 1.933 2.013.547.823.84 1.8 1.062 2.752l.008.033c.335 1.45.344 2.973.294 4.452v.032a37.74 37.74 0 0 1-.555 5.278 44.256 44.256 0 0 1-1.313 5.334l-.007.024a25.32 25.32 0 0 0-.443 1.573c.902.062 1.802.163 2.694.31 1.066.176 2.117.442 3.134.806 1.003.359 1.973.809 2.9 1.333.791.448 1.574.93 2.27 1.52.671.572 1.295 1.2 1.908 1.835l.021.02c.894.93 1.654 1.983 2.321 3.085l.002.003a24.204 24.204 0 0 1 1.774 3.528l.005.012a19.487 19.487 0 0 1 1.06 3.619c.286 1.52.342 3.083.344 4.626v.02c.001 1.55-.035 3.103-.186 4.646l-.005.05a27.807 27.807 0 0 1-.655 3.836 25.922 25.922 0 0 1-1.2 3.706c-.589 1.435-1.379 2.783-2.228 4.077l-.007.01c-.817 1.244-1.703 2.474-2.782 3.507a13.821 13.821 0 0 1-2.505 1.885 9.396 9.396 0 0 1 1.484 2.018l.011.02c.702 1.269.983 2.726 1.028 4.164v.013c.038 1.2.042 2.406-.059 3.604l-.002.02a30.398 30.398 0 0 1-.452 3.179l-.01.054a19.252 19.252 0 0 1-1.003 3.424l-.018.045c-.532 1.328-1.243 2.582-2 3.79a21.79 21.79 0 0 1-3.386 4.13 28.54 28.54 0 0 1-4.139 3.302l-.004.003c-1.233.805-2.525 1.56-3.91 2.075-1.365.508-2.839.664-4.288.63-1.228-.027-2.472-.097-3.676-.357-1.05-.226-2.068-.588-3.05-1.018-.889-.39-1.753-.85-2.538-1.423a13.093 13.093 0 0 1-1.7 1.578c-.92.72-1.934 1.316-2.96 1.868-1.43.769-2.926 1.414-4.434 2.013-1.337.53-2.707 1.074-4.121 1.363-1.386.284-2.843.24-4.248.174a32.37 32.37 0 0 1-2.286-.176c-.57-.068-1.143-.154-1.695-.317-.966-.284-1.869-.755-2.716-1.291-.304-.193-.61-.397-.903-.62-.627.499-1.305.934-2.031 1.275-.577.27-1.184.478-1.789.674-.865.28-1.741.529-2.618.767h-.002c-1.691.46-3.394.894-5.12 1.204-1.358.244-2.736.39-4.117.417-1.51.03-3.02-.034-4.524-.136a36.83 36.83 0 0 1-2.175-.2c-.514-.066-1.036-.143-1.531-.302-.785-.253-1.542-.595-2.286-.947a14.944 14.944 0 0 1-2.631-1.577 15.753 15.753 0 0 1-1.998-1.777c-.66-.701-1.148-1.56-1.354-2.503-.132-.602-.13-1.281.308-1.765a1.294 1.294 0 0 1 1.473-.324c.166.073.312.18.445.303Z"/></svg>